<svg width="28" height="28" viewBox="0 0 28 28" fill="none" xmlns="http://www.w3.org/2000/svg">
<g clip-path="url(#clip0_618_3551)">
<path d="M14 24.5C14 25.1452 13.4773 25.6667 12.8333 25.6667H5.83333C2.61683 25.6667 0 23.0498 0 19.8333V5.83333C0 2.61683 2.61683 0 5.83333 0H19.8333C23.0498 0 25.6667 2.61683 25.6667 5.83333V12.8333C25.6667 13.4785 25.144 14 24.5 14C23.856 14 23.3333 13.4785 23.3333 12.8333V5.83333C23.3333 3.90367 21.763 2.33333 19.8333 2.33333H5.83333C3.90367 2.33333 2.33333 3.90367 2.33333 5.83333V13.9522L5.60933 10.6762C7.39667 8.88767 10.3052 8.88767 12.0937 10.6762L18.3248 16.9073C18.781 17.3635 18.781 18.1008 18.3248 18.557C18.0973 18.7845 17.7987 18.8988 17.5 18.8988C17.2013 18.8988 16.9027 18.7845 16.6752 18.557L10.444 12.3258C9.56667 11.4497 8.13867 11.4485 7.259 12.3258L2.33333 17.2515V19.8333C2.33333 21.763 3.90367 23.3333 5.83333 23.3333H12.8333C13.4773 23.3333 14 23.8548 14 24.5ZM17.5 4.08333C19.4297 4.08333 21 5.65367 21 7.58333C21 9.513 19.4297 11.0833 17.5 11.0833C15.5703 11.0833 14 9.513 14 7.58333C14 5.65367 15.5703 4.08333 17.5 4.08333ZM17.5 6.41667C16.8572 6.41667 16.3333 6.93933 16.3333 7.58333C16.3333 8.22733 16.8572 8.75 17.5 8.75C18.1428 8.75 18.6667 8.22733 18.6667 7.58333C18.6667 6.93933 18.1428 6.41667 17.5 6.41667ZM26.8333 21H23.3333V17.5C23.3333 16.8548 22.8107 16.3333 22.1667 16.3333C21.5227 16.3333 21 16.8548 21 17.5V21H17.5C16.856 21 16.3333 21.5215 16.3333 22.1667C16.3333 22.8118 16.856 23.3333 17.5 23.3333H21V26.8333C21 27.4785 21.5227 28 22.1667 28C22.8107 28 23.3333 27.4785 23.3333 26.8333V23.3333H26.8333C27.4773 23.3333 28 22.8118 28 22.1667C28 21.5215 27.4773 21 26.8333 21Z" fill="#007BFF"/>
</g>
<defs>
<clipPath id="clip0_618_3551">
<rect width="28" height="28" fill="white"/>
</clipPath>
</defs>
</svg>
