<svg width="33" height="17" viewBox="0 0 33 17" fill="none" xmlns="http://www.w3.org/2000/svg">
<path fill-rule="evenodd" clip-rule="evenodd" d="M5.57167 3.41339C5.89123 3.08453 6.4092 3.08453 6.72873 3.41339L11.0924 7.90467C11.4119 8.23354 11.4119 8.76665 11.0924 9.09552L6.72873 13.5868C6.4092 13.9156 5.89123 13.9156 5.57167 13.5868C5.25215 13.2579 5.25215 12.7248 5.57167 12.3959L9.35674 8.50009L5.57167 4.60431C5.25215 4.27545 5.25215 3.74225 5.57167 3.41339Z" fill="#8DA6C2"/>
<path fill-rule="evenodd" clip-rule="evenodd" d="M15.5717 3.41339C15.8912 3.08453 16.4092 3.08453 16.7287 3.41339L21.0924 7.90467C21.4119 8.23354 21.4119 8.76665 21.0924 9.09552L16.7287 13.5868C16.4092 13.9156 15.8912 13.9156 15.5717 13.5868C15.2522 13.2579 15.2522 12.7248 15.5717 12.3959L19.3567 8.50009L15.5717 4.60431C15.2522 4.27545 15.2522 3.74225 15.5717 3.41339Z" fill="#8DA6C2"/>
<path fill-rule="evenodd" clip-rule="evenodd" d="M25.5717 3.41339C25.8912 3.08453 26.4092 3.08453 26.7287 3.41339L31.0924 7.90467C31.4119 8.23354 31.4119 8.76665 31.0924 9.09552L26.7287 13.5868C26.4092 13.9156 25.8912 13.9156 25.5717 13.5868C25.2522 13.2579 25.2522 12.7248 25.5717 12.3959L29.3567 8.50009L25.5717 4.60431C25.2522 4.27545 25.2522 3.74225 25.5717 3.41339Z" fill="#8DA6C2"/>
</svg>
