<svg width="38" height="36" viewBox="0 0 38 36" fill="none" xmlns="http://www.w3.org/2000/svg">
<rect x="0.5" y="0.5" width="37" height="35" rx="9.5" stroke="#E6F2FF"/>
<g clip-path="url(#clip0_1128_35758)">
<path d="M33.1383 21.6808C33.7876 20.9376 34.0959 19.9012 33.9743 18.8702L33.5687 15.4309C33.1305 11.7156 30.5295 8.572 26.8776 7.34387L23.1385 8.60135C21.7781 9.05885 20.7837 10.3674 20.5977 11.9447L19.7809 18.8702C19.6593 19.9012 19.9676 20.9376 20.6169 21.6808C21.1854 22.3314 21.9638 22.6982 22.7765 22.6982H30.9787C31.7914 22.6982 32.5698 22.3315 33.1383 21.6808Z" fill="#C86D36"/>
<path d="M33.9742 18.8702L33.5686 15.4309C33.1304 11.7157 30.5294 8.57206 26.8775 7.34387L26.0371 7.62647C29.2957 9.01051 31.5773 11.9729 31.9851 15.4309L32.3907 18.8701C32.5123 19.9012 32.204 20.9375 31.5547 21.6808C30.9863 22.3314 30.2078 22.6981 29.3951 22.6981H30.9786C31.7913 22.6981 32.5698 22.3314 33.1382 21.6808C33.7875 20.9376 34.0957 19.9012 33.9742 18.8702Z" fill="#AC5E2E"/>
<path d="M33.2787 25.4637C33.2787 23.9364 32.0405 22.6982 30.5131 22.6982H23.2421C21.7147 22.6982 20.4766 23.9364 20.4766 25.4637V30.4987H33.2787V25.4637Z" fill="#F58A97"/>
<path d="M33.2785 25.4637C33.2785 23.9364 32.0404 22.6982 30.513 22.6982H29.0615C30.5889 22.6982 31.827 23.9364 31.827 25.4637V30.4987H33.2786L33.2785 25.4637Z" fill="#F07281"/>
<path d="M26.8771 25.2087C25.6333 25.2087 24.625 24.2004 24.625 22.9566V17.537H29.129V22.9566C29.129 24.2004 28.1208 25.2087 26.8771 25.2087Z" fill="#FFB09E"/>
<path d="M24.625 21.9931C25.1241 22.2257 25.6569 22.378 26.2036 22.4443L26.2016 22.4446C27.251 22.573 28.255 22.3916 29.1291 21.9773V17.5371H24.6251V21.9931H24.625ZM29.5791 13.7117H32.1439C33.13 13.7117 33.9294 14.5111 33.9294 15.4971V15.5081C33.9294 16.4942 33.13 17.2936 32.1439 17.2936H29.5791V13.7117Z" fill="#FFA78F"/>
<path d="M24.1423 17.2935H21.5775C20.5914 17.2935 19.792 16.4941 19.792 15.508V15.4971C19.792 14.511 20.5914 13.7116 21.5775 13.7116H24.1423V17.2935Z" fill="#FFB09E"/>
<path d="M26.7952 9.31204C23.9133 9.33788 21.585 11.6817 21.585 14.5697V16.4336C21.585 19.3216 23.9133 21.6654 26.7952 21.6913C29.6771 21.6655 32.0054 19.3216 32.0054 16.4336V14.5697C32.0053 11.6817 29.6771 9.33788 26.7952 9.31204Z" fill="#FFCEBF"/>
<path d="M26.8687 19.374C26.0397 19.374 25.3652 18.6996 25.3652 17.8706C25.3669 17.7791 25.4044 17.6919 25.4697 17.6278C25.535 17.5637 25.6229 17.5278 25.7144 17.5278C25.8059 17.5278 25.8938 17.5637 25.9591 17.6278C26.0244 17.6919 26.0619 17.7791 26.0636 17.8706C26.0636 18.3146 26.4248 18.6758 26.8688 18.6758C27.3127 18.6758 27.6739 18.3146 27.6739 17.8706C27.6756 17.7791 27.7131 17.6919 27.7784 17.6278C27.8437 17.5637 27.9316 17.5278 28.0231 17.5278C28.1146 17.5278 28.2025 17.5637 28.2678 17.6278C28.3331 17.6919 28.3706 17.7791 28.3723 17.8706C28.3721 18.6996 27.6977 19.374 26.8687 19.374Z" fill="#FFA799"/>
<path d="M23.875 17.3044H23.0987C23.0072 17.306 22.92 17.3436 22.8559 17.4088C22.7918 17.4741 22.7559 17.562 22.7559 17.6535C22.7559 17.745 22.7918 17.8329 22.8559 17.8982C22.92 17.9635 23.0072 18.001 23.0987 18.0027H23.875C23.9665 18.001 24.0537 17.9635 24.1178 17.8982C24.182 17.8329 24.2179 17.745 24.2179 17.6535C24.2179 17.562 24.182 17.4741 24.1178 17.4088C24.0537 17.3436 23.9665 17.306 23.875 17.3044Z" fill="#FE8F83"/>
<path d="M29.5304 16.9166C29.4378 16.9166 29.349 16.8798 29.2836 16.8143C29.2181 16.7489 29.1813 16.6601 29.1813 16.5675V15.5666C29.1813 15.474 29.2181 15.3852 29.2836 15.3197C29.349 15.2542 29.4378 15.2174 29.5304 15.2174H29.9608C30.0522 15.2191 30.1394 15.2566 30.2035 15.3219C30.2677 15.3872 30.3036 15.4751 30.3036 15.5666C30.3036 15.6581 30.2677 15.7459 30.2035 15.8112C30.1394 15.8765 30.0522 15.914 29.9608 15.9157H29.8795V16.5675C29.8795 16.6134 29.8705 16.6588 29.853 16.7011C29.8354 16.7435 29.8097 16.782 29.7773 16.8144C29.7449 16.8468 29.7064 16.8725 29.664 16.8901C29.6217 16.9076 29.5763 16.9166 29.5304 16.9166ZM24.2244 16.9166C24.1318 16.9166 24.043 16.8798 23.9775 16.8143C23.912 16.7489 23.8752 16.6601 23.8752 16.5675V15.9157H23.794C23.7025 15.914 23.6153 15.8765 23.5512 15.8112C23.4871 15.7459 23.4512 15.658 23.4512 15.5665C23.4512 15.475 23.4871 15.3871 23.5512 15.3218C23.6153 15.2565 23.7025 15.219 23.794 15.2173H24.2243C24.3169 15.2174 24.4057 15.2542 24.4712 15.3196C24.5367 15.3851 24.5735 15.4739 24.5735 15.5665V16.5674C24.5735 16.6133 24.5645 16.6587 24.5469 16.701C24.5294 16.7434 24.5037 16.7819 24.4713 16.8143C24.4388 16.8468 24.4003 16.8725 24.358 16.89C24.3156 16.9076 24.2702 16.9166 24.2244 16.9166Z" fill="#5A5A5A"/>
<path d="M26.8798 9.3114H26.844C26.6267 9.3114 26.4126 9.32488 26.2021 9.35048C28.8034 9.66712 30.8186 11.883 30.8186 14.5697V16.4336C30.8186 19.1204 28.8034 21.3362 26.2021 21.6529C26.4126 21.6785 26.6267 21.692 26.844 21.692H26.8798C29.7839 21.692 32.1381 19.3377 32.1381 16.4337V14.5698C32.1381 11.6656 29.7839 9.3114 26.8798 9.3114Z" fill="#FFB09E"/>
<path d="M30.6553 17.3044H29.879C29.7875 17.306 29.7003 17.3436 29.6362 17.4088C29.5721 17.4741 29.5361 17.562 29.5361 17.6535C29.5361 17.745 29.5721 17.8329 29.6362 17.8982C29.7003 17.9635 29.7875 18.001 29.879 18.0027H30.6553C30.7468 18.001 30.834 17.9635 30.8981 17.8982C30.9622 17.8329 30.9981 17.745 30.9981 17.6535C30.9981 17.562 30.9622 17.4741 30.8981 17.4088C30.834 17.3436 30.7468 17.306 30.6553 17.3044Z" fill="#FE8F83"/>
<path d="M25.2379 14.1754H26.2935L28.5681 10.5717L25.8682 9.40268C24.1624 9.72278 22.7471 10.8658 22.0508 12.4044C22.7136 13.4676 23.8928 14.1754 25.2379 14.1754Z" fill="#FFB09E"/>
<path d="M33.345 14.1755H26.2938C24.2207 14.1755 22.54 12.4949 22.54 10.4217V10.1742C22.54 8.25986 24.092 6.70801 26.0063 6.70801H28.5119C31.1812 6.70801 33.345 8.87187 33.345 11.5411V14.1755Z" fill="#D77F4A"/>
<path d="M28.3974 6.70795H26.7695C29.5019 6.70795 31.7169 8.82183 31.7169 11.4294V14.1755H33.3448V11.4294C33.3447 8.82183 31.1298 6.70795 28.3974 6.70795Z" fill="#C86D36"/>
<path d="M19.4206 25.4332C19.4206 24.0133 18.2696 22.8623 16.8497 22.8623H6.57086C5.15102 22.8623 4 24.0133 4 25.4332V30.4987H19.4206V29.8421V25.4332Z" fill="#3C87D0"/>
<path d="M11.7104 25.4987C10.4746 25.4987 9.47266 24.4968 9.47266 23.2609V17.8757H13.9482L14.0355 23.2609C14.0356 24.4968 12.9463 25.4987 11.7104 25.4987Z" fill="#FFB09E"/>
<path d="M12.1594 7.82587H7.64148C6.04527 7.82587 4.80636 9.21835 4.9921 10.8037L5.57265 15.7594H12.1594V7.82587Z" fill="#AA6A51"/>
<path d="M9.47266 22.124C10.1657 22.4367 10.9173 22.5981 11.6776 22.5975H11.7292C12.4946 22.5981 13.2513 22.4345 13.9482 22.1177V17.8757H9.47266V22.124Z" fill="#FFA78F"/>
<path d="M9.09096 13.5353H6.29885C5.28705 13.5353 4.4668 14.3556 4.4668 15.3674C4.4668 16.3792 5.28705 17.1994 6.29885 17.1994H9.09096V13.5353Z" fill="#FFB09E"/>
<path d="M17.1045 13.5353H14.3379V17.1994H17.1045C18.1163 17.1994 18.9365 16.3791 18.9365 15.3673C18.9365 14.3556 18.1163 13.5353 17.1045 13.5353Z" fill="#FFA78F"/>
<path d="M11.7103 21.6177L11.5943 21.626C11.3913 21.626 11.2742 21.6916 11.0771 21.6697C8.39182 21.3712 6.30371 19.094 6.30371 16.3291V14.4055C6.30371 11.4377 8.70963 9.03174 11.6775 9.03174H11.729C14.6969 9.03174 17.1028 11.4377 17.1028 14.4055V16.3291C17.1028 19.297 14.6782 21.6177 11.7103 21.6177Z" fill="#FFCEBF"/>
<path d="M8.70854 17.2302H7.91395C7.81918 17.2302 7.7283 17.2679 7.66129 17.3349C7.59428 17.4019 7.55664 17.4928 7.55664 17.5875C7.55664 17.6823 7.59428 17.7732 7.66129 17.8402C7.7283 17.9072 7.81918 17.9448 7.91395 17.9448H8.70854C8.8033 17.9448 8.89418 17.9072 8.96119 17.8402C9.0282 17.7732 9.06584 17.6823 9.06584 17.5875C9.06584 17.4928 9.0282 17.4019 8.96119 17.3349C8.89418 17.2679 8.8033 17.2302 8.70854 17.2302Z" fill="#FE8F83"/>
<path d="M11.7024 19.5653C10.8089 19.5653 10.082 18.8384 10.082 17.9449C10.082 17.8194 10.1319 17.699 10.2207 17.6102C10.3095 17.5214 10.4299 17.4716 10.5554 17.4716C10.681 17.4716 10.8014 17.5214 10.8901 17.6102C10.9789 17.699 11.0288 17.8194 11.0288 17.9449C11.0288 18.3164 11.331 18.6186 11.7024 18.6186C12.0739 18.6186 12.3761 18.3164 12.3761 17.9449C12.3761 17.8194 12.426 17.699 12.5147 17.6102C12.6035 17.5214 12.7239 17.4716 12.8495 17.4716C12.975 17.4716 13.0954 17.5214 13.1842 17.6102C13.273 17.699 13.3229 17.8194 13.3229 17.9449C13.3227 18.8384 12.5959 19.5653 11.7024 19.5653Z" fill="#FFA799"/>
<path d="M9.06615 16.7301C9.00399 16.7301 8.94243 16.7178 8.885 16.694C8.82757 16.6702 8.77538 16.6354 8.73142 16.5914C8.68747 16.5474 8.6526 16.4953 8.62881 16.4378C8.60502 16.3804 8.59277 16.3188 8.59277 16.2567V15.2621C8.59277 15.1366 8.64265 15.0162 8.73142 14.9274C8.8202 14.8386 8.9406 14.7887 9.06615 14.7887C9.1917 14.7887 9.31211 14.8386 9.40088 14.9274C9.48966 15.0162 9.53953 15.1366 9.53953 15.2621V16.2567C9.53952 16.3822 9.48964 16.5026 9.40086 16.5914C9.31209 16.6802 9.1917 16.73 9.06615 16.7301ZM14.3385 16.7301C14.2764 16.7301 14.2148 16.7178 14.1574 16.694C14.0999 16.6702 14.0478 16.6354 14.0038 16.5914C13.9598 16.5474 13.925 16.4953 13.9012 16.4378C13.8774 16.3804 13.8652 16.3188 13.8652 16.2567V15.2621C13.8652 15.1999 13.8774 15.1384 13.9012 15.081C13.925 15.0235 13.9598 14.9713 14.0038 14.9274C14.0478 14.8834 14.0999 14.8486 14.1574 14.8248C14.2148 14.801 14.2764 14.7887 14.3385 14.7887C14.4007 14.7887 14.4623 14.801 14.5197 14.8248C14.5771 14.8486 14.6293 14.8834 14.6733 14.9274C14.7172 14.9713 14.7521 15.0235 14.7759 15.081C14.7997 15.1384 14.8119 15.1999 14.8119 15.2621V16.2567C14.8119 16.3188 14.7997 16.3804 14.7759 16.4378C14.7521 16.4953 14.7172 16.5475 14.6733 16.5914C14.6293 16.6354 14.5771 16.6702 14.5197 16.694C14.4623 16.7178 14.4007 16.7301 14.3385 16.7301Z" fill="#5A5A5A"/>
<path d="M11.729 9.03174H11.6774C11.476 9.03174 11.2776 9.04463 11.082 9.0666C13.7647 9.3676 15.8504 11.6424 15.8504 14.4055V16.3292C15.8504 19.0922 13.7647 21.3672 11.082 21.6681C11.2797 21.6908 11.4785 21.7024 11.6775 21.7029H11.729C14.6969 21.7029 17.1028 19.297 17.1028 16.3292V14.4055C17.1027 11.4377 14.6968 9.03174 11.729 9.03174Z" fill="#FFB09E"/>
<path d="M17.0264 13.5353V13.5048C16.5977 10.966 14.39 9.03168 11.7292 9.03168H11.6777C9.50262 9.03168 7.63078 10.3247 6.78516 12.1833C7.46115 13.0085 8.48789 13.5353 9.63785 13.5353H17.0264Z" fill="#FFB09E"/>
<path d="M18.2788 13.5353H10.8902C8.85445 13.5353 7.2041 11.8849 7.2041 9.84916V8.85681C7.2041 7.36906 8.4102 6.16296 9.89795 6.16296H14.6371C16.6484 6.16296 18.2788 7.79339 18.2788 9.80462V13.5353Z" fill="#AA6A51"/>
<path d="M14.6372 6.16302H13.0166C15.0278 6.16302 16.6583 7.79345 16.6583 9.80468V13.5353H18.2789V9.80468C18.279 7.79345 16.6485 6.16302 14.6372 6.16302Z" fill="#935B44"/>
<path d="M15.4898 17.2302H14.6952C14.6004 17.2302 14.5096 17.2679 14.4425 17.3349C14.3755 17.4019 14.3379 17.4928 14.3379 17.5875C14.3379 17.6823 14.3755 17.7732 14.4425 17.8402C14.5096 17.9072 14.6004 17.9448 14.6952 17.9448H15.4898C15.5845 17.9448 15.6754 17.9072 15.7424 17.8402C15.8094 17.7732 15.8471 17.6823 15.8471 17.5875C15.8471 17.4928 15.8094 17.4019 15.7424 17.3349C15.6754 17.2679 15.5845 17.2302 15.4898 17.2302Z" fill="#FE8F83"/>
<path d="M16.8501 22.8623H15.2295C16.6493 22.8623 17.8004 24.0133 17.8004 25.4332V30.4988H19.421V25.4332C19.4211 24.0133 18.27 22.8623 16.8501 22.8623Z" fill="#0078C8"/>
<path d="M13.9365 32.5036V35.837H24.6412V32.5036C24.6412 31.3964 23.7437 30.4988 22.6364 30.4988H15.9413C14.8341 30.4988 13.9365 31.3964 13.9365 32.5036Z" fill="#0AB69F"/>
<path d="M22.6358 30.4988H20.8467C21.9539 30.4988 22.8515 31.3964 22.8515 32.5036V35.837H24.6406V32.5036C24.6406 31.3964 23.743 30.4988 22.6358 30.4988Z" fill="#01998D"/>
<path d="M19.2887 32.3925C18.2436 32.3925 17.3965 31.5454 17.3965 30.5003V25.9466H21.1809V30.5003C21.1809 31.5453 20.3338 32.3925 19.2887 32.3925Z" fill="#FFB09E"/>
<path d="M17.3965 30.5003C17.3965 30.518 17.3973 30.5357 17.3978 30.5534C17.9975 30.8334 18.6514 30.9782 19.3133 30.9776C19.9567 30.9781 20.5928 30.8411 21.179 30.5758C21.18 30.5507 21.1809 30.5256 21.1809 30.5003V25.9466H17.3965V30.5003Z" fill="#FFA78F"/>
<path d="M21.5104 17.9426H17.4887C15.5344 17.9426 13.9502 19.5268 13.9502 21.4811V25.7577H19.2813V22.0476H21.5104V17.9426Z" fill="#AA6A51"/>
<path d="M23.8501 26.6327H21.5107V23.5344H23.8501C24.7057 23.5344 25.3993 24.228 25.3993 25.0836C25.3993 25.9391 24.7057 26.6327 23.8501 26.6327Z" fill="#FFA78F"/>
<path d="M17.0526 26.6327H14.7132C13.8576 26.6327 13.1641 25.9391 13.1641 25.0836C13.1641 24.228 13.8576 23.5344 14.7132 23.5344H17.0526V26.6327Z" fill="#FFB09E"/>
<path d="M19.3127 30.4409C16.8079 30.4409 14.7773 28.4103 14.7773 25.9056V24.2616C14.7773 21.7568 16.8079 19.7263 19.3127 19.7263C21.8175 19.7263 23.848 21.7568 23.848 24.2616V25.9056C23.8481 28.4103 21.8176 30.4409 19.3127 30.4409Z" fill="#FFCEBF"/>
<path d="M16.7504 26.8537H16.0785C15.9984 26.8537 15.9215 26.8856 15.8649 26.9422C15.8082 26.9989 15.7764 27.0758 15.7764 27.1559C15.7764 27.236 15.8082 27.3129 15.8649 27.3696C15.9215 27.4262 15.9984 27.4581 16.0785 27.4581H16.7504C16.8306 27.4581 16.9074 27.4262 16.9641 27.3696C17.0208 27.3129 17.0526 27.236 17.0526 27.1559C17.0526 27.0758 17.0208 26.9989 16.9641 26.9422C16.9074 26.8856 16.8306 26.8537 16.7504 26.8537Z" fill="#FE8F83"/>
<path d="M19.2812 28.9079C18.4853 28.9079 17.8379 28.2604 17.8379 27.4646C17.8379 27.3391 17.8878 27.2187 17.9765 27.1299C18.0653 27.0411 18.1857 26.9912 18.3113 26.9912C18.4368 26.9912 18.5572 27.0411 18.646 27.1299C18.7348 27.2187 18.7846 27.3391 18.7846 27.4646C18.7846 27.7384 19.0074 27.9611 19.2812 27.9611C19.5549 27.9611 19.7777 27.7384 19.7777 27.4646C19.7777 27.3391 19.8276 27.2187 19.9163 27.1299C20.0051 27.0411 20.1255 26.9912 20.2511 26.9912C20.3766 26.9912 20.497 27.0411 20.5858 27.1299C20.6746 27.2187 20.7245 27.3391 20.7245 27.4646C20.7245 28.2604 20.0771 28.9079 19.2812 28.9079Z" fill="#FFA799"/>
<path d="M17.0525 26.365C16.9269 26.365 16.8065 26.3151 16.7178 26.2264C16.629 26.1376 16.5791 26.0172 16.5791 25.8916V25.3416C16.5791 25.2794 16.5913 25.2179 16.6151 25.1604C16.6389 25.103 16.6738 25.0508 16.7178 25.0069C16.7617 24.9629 16.8139 24.928 16.8713 24.9043C16.9288 24.8805 16.9903 24.8682 17.0525 24.8682C17.1146 24.8682 17.1762 24.8805 17.2336 24.9043C17.2911 24.928 17.3433 24.9629 17.3872 25.0069C17.4312 25.0508 17.466 25.103 17.4898 25.1604C17.5136 25.2179 17.5259 25.2794 17.5259 25.3416V25.8916C17.5259 26.0172 17.476 26.1376 17.3872 26.2264C17.2984 26.3151 17.178 26.365 17.0525 26.365ZM21.5108 26.365C21.3853 26.365 21.2649 26.3151 21.1761 26.2264C21.0873 26.1376 21.0374 26.0172 21.0374 25.8916V25.3416C21.0374 25.2161 21.0873 25.0956 21.1761 25.0069C21.2649 24.9181 21.3853 24.8682 21.5108 24.8682C21.6364 24.8682 21.7568 24.9181 21.8456 25.0069C21.9343 25.0956 21.9842 25.2161 21.9842 25.3416V25.8916C21.9842 26.0172 21.9343 26.1376 21.8456 26.2264C21.7568 26.3151 21.6364 26.365 21.5108 26.365Z" fill="#5A5A5A"/>
<path d="M19.3131 19.7263C19.1314 19.7263 18.9526 19.7382 18.7764 19.759C21.028 20.0246 22.775 21.9385 22.775 24.2616V25.9056C22.775 28.2286 21.028 30.1425 18.7764 30.4082C18.9525 30.429 19.1314 30.4409 19.3131 30.4409C21.8179 30.4409 23.8484 28.4104 23.8484 25.9056V24.2616C23.8485 21.7568 21.818 19.7263 19.3131 19.7263Z" fill="#FFB09E"/>
<path d="M20.2871 17.0764H19.4983C17.4997 17.0764 15.8295 18.4816 15.4212 20.3578L15.421 20.3576C15.2859 21.1073 15.3046 21.4907 15.3046 22.0476C15.3046 22.0476 16.7908 24.2942 18.1203 23.9026C17.9772 23.6588 17.7984 23.3947 17.7424 22.9378C18.3332 23.5531 19.132 24.1443 19.9524 23.9026C19.8093 23.6588 19.6304 23.3947 19.5744 22.9378C20.1287 23.5149 20.9215 24.1217 21.6654 23.9026C21.6562 23.8871 21.5414 23.6915 21.5325 23.6759C21.1152 22.9519 21.6457 22.0476 22.4814 22.0476C22.9953 22.0476 23.4576 22.3725 23.6188 22.8604C23.6915 23.0805 23.7472 23.3058 23.7854 23.5344C23.8064 23.5336 23.8273 23.5329 23.8485 23.5329C24.1322 23.5329 24.3979 23.6094 24.6267 23.7424V21.416C24.6267 19.0193 22.6838 17.0764 20.2871 17.0764Z" fill="#AA6A51"/>
<path d="M20.2871 17.0764C19.4147 17.0764 19.4155 17.0733 19.2139 17.0869C21.4702 17.2414 23.2527 19.1204 23.2527 21.416V22.3251C23.4227 22.4656 23.5496 22.6511 23.6188 22.8604C23.6915 23.0805 23.7472 23.3058 23.7854 23.5344C23.8064 23.5336 23.8274 23.5328 23.8485 23.5328C24.1322 23.5328 24.3979 23.6094 24.6267 23.7424V21.416C24.6268 19.0193 22.6838 17.0764 20.2871 17.0764Z" fill="#935B44"/>
<path d="M22.4848 26.8537H21.8129C21.7328 26.8537 21.6559 26.8856 21.5992 26.9422C21.5426 26.9989 21.5107 27.0758 21.5107 27.1559C21.5107 27.236 21.5426 27.3129 21.5992 27.3696C21.6559 27.4262 21.7328 27.4581 21.8129 27.4581H22.4848C22.5649 27.4581 22.6418 27.4262 22.6985 27.3696C22.7551 27.3129 22.787 27.236 22.787 27.1559C22.787 27.0758 22.7551 26.9989 22.6985 26.9422C22.6418 26.8856 22.5649 26.8537 22.4848 26.8537Z" fill="#FE8F83"/>
</g>
<defs>
<clipPath id="clip0_1128_35758">
<rect width="30" height="30" fill="white" transform="translate(4 6)"/>
</clipPath>
</defs>
</svg>
