<svg width="28" height="28" viewBox="0 0 28 28" fill="none" xmlns="http://www.w3.org/2000/svg">
<g id="Frame" clip-path="url(#clip0_725_12289)">
<g id="Group">
<g id="Layer 30">
<path id="Vector" d="M6.5625 10.9375C8.97875 10.9375 10.9375 8.97875 10.9375 6.5625C10.9375 4.14625 8.97875 2.1875 6.5625 2.1875C4.14625 2.1875 2.1875 4.14625 2.1875 6.5625C2.1875 8.97875 4.14625 10.9375 6.5625 10.9375Z" fill="#7ED63E"/>
<path id="Vector_2" d="M20.7618 11.5676L18.6968 13.6326L11.4824 20.847C11.4011 20.9283 11.3046 20.9928 11.1984 21.0369C11.0922 21.0809 10.9783 21.1036 10.8633 21.1036C10.7484 21.1036 10.6345 21.0809 10.5283 21.0369C10.422 20.9928 10.3255 20.9283 10.2443 20.847L9.62741 20.2301V20.2257L7.77241 18.3707H7.76803L7.15116 17.7538C7.0698 17.6726 7.00526 17.5761 6.96123 17.4698C6.9172 17.3636 6.89453 17.2498 6.89453 17.1348C6.89453 17.0198 6.9172 16.9059 6.96123 16.7997C7.00526 16.6935 7.0698 16.597 7.15116 16.5157L16.4305 7.23633L20.7618 11.5676Z" fill="#D1E7F8"/>
<path id="Vector_3" d="M6.53125 19.607L7.76763 18.3706L9.62394 20.2265L8.38756 21.4629L6.53125 19.607Z" fill="#57A4FF"/>
<path id="Vector_4" d="M7.76562 18.3706L7.7665 18.3702L9.62237 20.2261L9.6215 20.2269L7.76562 18.3706ZM18.9044 7.23625L22.5098 3.63037L24.3657 5.48625L20.7607 9.09125L18.9044 7.23625Z" fill="#9BC9FF"/>
<path id="Vector_5" d="M21.2812 2.39057L22.5185 3.62826L24.3748 5.48457L25.6125 6.72182L26.8497 5.48457L22.5185 1.15332L21.2812 2.39057Z" fill="#2488FF"/>
<path id="Vector_6" d="M15.8164 6.61542L21.3849 12.1839L22.6222 10.9467L18.91 7.23449L17.0537 5.37817L15.8164 6.61542Z" fill="#57A4FF"/>
<path id="Vector_7" d="M23.625 17.9375V16.625H21.4375V17.9375C20.475 17.9375 19.25 18.725 19.25 19.6875V25.8125C19.25 26.2937 20.0813 26.6875 20.5625 26.6875H24.5C24.7319 26.6868 24.954 26.5944 25.118 26.4305C25.2819 26.2665 25.3743 26.0444 25.375 25.8125V19.6875C25.3736 19.2238 25.1888 18.7795 24.8609 18.4516C24.533 18.1237 24.0887 17.9389 23.625 17.9375Z" fill="#D1E7F8"/>
<path id="Vector_8" d="M23.625 17.9375V16.625H23.1875V17.6934C23.1876 17.7777 23.2123 17.8602 23.2586 17.9307C23.3048 18.0013 23.3705 18.0568 23.4478 18.0906C23.7594 18.2257 24.0249 18.4487 24.2117 18.7323C24.3986 19.016 24.4988 19.3479 24.5 19.6875V25.8125C24.4993 26.0444 24.4069 26.2665 24.243 26.4305C24.079 26.5944 23.8569 26.6868 23.625 26.6875H24.5C24.7319 26.6868 24.954 26.5944 25.118 26.4305C25.2819 26.2665 25.3743 26.0444 25.375 25.8125V19.6875C25.3736 19.2238 25.1888 18.7795 24.8609 18.4516C24.533 18.1237 24.0887 17.9389 23.625 17.9375Z" fill="#BDDBFF"/>
<path id="Vector_9" d="M20.5625 14.875H24.5V16.625H20.5625V14.875Z" fill="#007BFF"/>
<path id="Vector_10" d="M19.25 20.125H25.375V24.5H19.25V20.125Z" fill="#BDDBFF"/>
<path id="Vector_11" d="M24.5 20.125H25.375V24.5H24.5V20.125Z" fill="#9AC8FF"/>
<path id="Vector_12" d="M23.1875 21.875H22.75V21.4375C22.75 21.3215 22.7039 21.2102 22.6219 21.1281C22.5398 21.0461 22.4285 21 22.3125 21C22.1965 21 22.0852 21.0461 22.0031 21.1281C21.9211 21.2102 21.875 21.3215 21.875 21.4375V21.875H21.4375C21.3215 21.875 21.2102 21.9211 21.1281 22.0031C21.0461 22.0852 21 22.1965 21 22.3125C21 22.4285 21.0461 22.5398 21.1281 22.6219C21.2102 22.7039 21.3215 22.75 21.4375 22.75H21.875V23.1875C21.875 23.3035 21.9211 23.4148 22.0031 23.4969C22.0852 23.5789 22.1965 23.625 22.3125 23.625C22.4285 23.625 22.5398 23.5789 22.6219 23.4969C22.7039 23.4148 22.75 23.3035 22.75 23.1875V22.75H23.1875C23.3035 22.75 23.4148 22.7039 23.4969 22.6219C23.5789 22.5398 23.625 22.4285 23.625 22.3125C23.625 22.1965 23.5789 22.0852 23.4969 22.0031C23.4148 21.9211 23.3035 21.875 23.1875 21.875Z" fill="#007BFF"/>
<path id="Vector_13" d="M1.74991 26.6876C1.66339 26.6876 1.57882 26.6619 1.50689 26.6138C1.43496 26.5658 1.3789 26.4974 1.3458 26.4175C1.31269 26.3376 1.30403 26.2496 1.3209 26.1648C1.33777 26.0799 1.37943 26.002 1.44059 25.9408L6.35372 21.0272C6.39437 20.9866 6.44262 20.9544 6.49572 20.9324C6.54882 20.9104 6.60572 20.8991 6.66319 20.8992C6.72065 20.8992 6.77755 20.9105 6.83063 20.9325C6.88372 20.9545 6.93194 20.9868 6.97256 21.0274C7.01318 21.0681 7.0454 21.1163 7.06737 21.1694C7.08934 21.2225 7.10064 21.2794 7.10062 21.3369C7.1006 21.3944 7.08926 21.4513 7.06725 21.5044C7.04524 21.5574 7.01299 21.6057 6.97234 21.6463L2.05922 26.5594C1.97719 26.6415 1.86593 26.6876 1.74991 26.6876Z" fill="#D1D3D4"/>
<g id="Group_2">
<path id="Vector_14" d="M9.31725 18.0617C9.39976 18.1414 9.51028 18.1855 9.62499 18.1845C9.7397 18.1835 9.84943 18.1375 9.93055 18.0564C10.0117 17.9753 10.0577 17.8655 10.0587 17.7508C10.0597 17.6361 10.0156 17.5256 9.93588 17.4431L8.07956 15.5868L7.46094 16.2054L9.31725 18.0617ZM10.5554 16.8245C10.6379 16.9042 10.7484 16.9483 10.8631 16.9473C10.9778 16.9463 11.0876 16.9003 11.1687 16.8191C11.2498 16.738 11.2958 16.6283 11.2968 16.5136C11.2978 16.3989 11.2537 16.2884 11.174 16.2058L9.31725 14.35L8.69863 14.9686L10.5554 16.8245ZM11.7926 15.5868C11.8332 15.6274 11.8815 15.6597 11.9346 15.6817C11.9876 15.7037 12.0445 15.715 12.102 15.7151C12.1595 15.7151 12.2164 15.7038 12.2695 15.6818C12.3226 15.6598 12.3708 15.6276 12.4115 15.587C12.4521 15.5464 12.4844 15.4982 12.5064 15.4451C12.5284 15.392 12.5397 15.3351 12.5397 15.2776C12.5398 15.2202 12.5285 15.1633 12.5065 15.1102C12.4845 15.0571 12.4523 15.0088 12.4117 14.9682L10.5554 13.1123L9.93675 13.7309L11.7926 15.5868ZM13.0303 14.35C13.1129 14.4296 13.2234 14.4736 13.3381 14.4726C13.4529 14.4715 13.5625 14.4254 13.6436 14.3442C13.7247 14.263 13.7706 14.1533 13.7715 14.0386C13.7724 13.9238 13.7283 13.8134 13.6485 13.7309L11.7922 11.8746L11.1736 12.4932L13.0303 14.35ZM14.2676 13.1123C14.3501 13.192 14.4606 13.2361 14.5753 13.2351C14.69 13.2341 14.7997 13.1881 14.8809 13.107C14.962 13.0258 15.008 12.9161 15.009 12.8014C15.01 12.6867 14.9659 12.5762 14.8862 12.4937L13.0303 10.6373L12.4117 11.256L14.2676 13.1123ZM15.5048 11.8746C15.5452 11.9164 15.5934 11.9497 15.6468 11.9726C15.7002 11.9956 15.7576 12.0076 15.8157 12.0081C15.8738 12.0086 15.9314 11.9976 15.9852 11.9756C16.0389 11.9536 16.0878 11.9211 16.1289 11.88C16.1699 11.8389 16.2024 11.7901 16.2244 11.7363C16.2464 11.6826 16.2575 11.6249 16.257 11.5669C16.2565 11.5088 16.2444 11.4514 16.2215 11.398C16.1986 11.3446 16.1652 11.2963 16.1234 11.256L14.2676 9.39966L13.6485 10.0187L15.5048 11.8746Z" fill="#9BC9FF"/>
</g>
<path id="Vector_15" d="M5.37672 8.62181C5.45876 8.70383 5.57002 8.7499 5.68603 8.7499C5.80204 8.7499 5.9133 8.70383 5.99534 8.62181L9.05784 5.55931C9.13754 5.47679 9.18163 5.36628 9.18064 5.25157C9.17964 5.13686 9.13363 5.02713 9.05251 4.94601C8.9714 4.8649 8.86167 4.81888 8.74696 4.81789C8.63224 4.81689 8.52173 4.86099 8.43922 4.94068L5.68603 7.69387L4.68284 6.69068C4.60033 6.61099 4.48982 6.56689 4.3751 6.56789C4.26039 6.56888 4.15066 6.6149 4.06955 6.69601C3.98843 6.77713 3.94242 6.88686 3.94142 7.00157C3.94043 7.11628 3.98452 7.22679 4.06422 7.30931L5.37672 8.62181Z" fill="#F1F2F2"/>
<path id="Vector_16" d="M10.6206 2.22212C11.7196 1.90807 12.8572 1.74918 14.0003 1.75006C15.9071 1.74428 17.7885 2.18857 19.4913 3.04681C19.595 3.09902 19.7152 3.10791 19.8254 3.07153C19.9356 3.03514 20.0269 2.95645 20.0791 2.85278C20.1313 2.7491 20.1402 2.62893 20.1038 2.5187C20.0674 2.40847 19.9887 2.31721 19.8851 2.265C18.0601 1.34515 16.0439 0.868936 14.0003 0.875058C12.7758 0.874202 11.5573 1.04443 10.3799 1.38081C10.2684 1.41272 10.1741 1.48764 10.1177 1.58909C10.0614 1.69054 10.0477 1.81021 10.0796 1.92178C10.1115 2.03334 10.1864 2.12766 10.2879 2.18399C10.3893 2.24031 10.509 2.25403 10.6206 2.22212ZM3.76276 21.9319C3.84334 21.9314 3.92221 21.9086 3.99067 21.8661C4.05913 21.8236 4.11451 21.763 4.15071 21.691C4.18692 21.619 4.20253 21.5384 4.19583 21.4581C4.18913 21.3778 4.16039 21.3009 4.11276 21.2359C3.00581 19.7202 2.26104 17.971 1.93567 16.1225C1.61031 14.2741 1.71301 12.3757 2.23588 10.5731C2.26831 10.4617 2.25514 10.3419 2.19927 10.2402C2.14339 10.1384 2.04939 10.0631 1.93794 10.0306C1.8265 9.99819 1.70673 10.0114 1.60499 10.0672C1.50325 10.1231 1.42788 10.2171 1.39544 10.3286C0.835409 12.26 0.725612 14.2941 1.07449 16.2746C1.42337 18.2551 2.22163 20.1292 3.40794 21.753C3.44876 21.8087 3.50219 21.854 3.56386 21.8851C3.62553 21.9162 3.69369 21.9322 3.76276 21.9319ZM17.3716 25.7806C15.5804 26.2906 13.6967 26.3866 11.863 26.0612C10.0293 25.7358 8.29355 24.9976 6.78719 23.9024C6.7409 23.8671 6.68802 23.8414 6.63166 23.8268C6.5753 23.8122 6.51659 23.809 6.45898 23.8174C6.40137 23.8258 6.346 23.8456 6.29614 23.8756C6.24627 23.9057 6.2029 23.9454 6.16857 23.9924C6.13425 24.0394 6.10965 24.0928 6.09622 24.1495C6.0828 24.2061 6.08081 24.2649 6.09039 24.3223C6.09996 24.3797 6.1209 24.4347 6.15198 24.4839C6.18306 24.5331 6.22365 24.5757 6.27138 24.609C7.8852 25.7826 9.74488 26.5737 11.7096 26.9224C13.6744 27.2711 15.6927 27.1682 17.6118 26.6215C17.722 26.5885 17.8148 26.5134 17.87 26.4125C17.9253 26.3115 17.9386 26.1929 17.907 26.0823C17.8754 25.9717 17.8015 25.8779 17.7013 25.8214C17.6011 25.7648 17.4827 25.7505 17.3716 25.7806ZM27.1253 14.0001C27.125 15.0704 26.9958 16.1369 26.7403 17.1763C26.7162 17.2708 26.6615 17.3547 26.5847 17.4149C26.5079 17.475 26.4134 17.5081 26.3159 17.5088C26.279 17.5088 26.2423 17.5044 26.2065 17.4957C26.0944 17.467 25.9981 17.3955 25.9384 17.2964C25.8786 17.1974 25.8602 17.0788 25.8871 16.9663C26.1284 15.996 26.2503 14.9999 26.2503 14.0001C26.2564 12.1081 25.8188 10.2411 24.9728 8.54881C24.9253 8.44549 24.9199 8.32775 24.9578 8.22054C24.9956 8.11333 25.0737 8.02507 25.1755 7.97445C25.2773 7.92383 25.3949 7.91483 25.5032 7.94936C25.6115 7.98389 25.7021 8.05923 25.7559 8.15943C26.6626 9.9725 27.1316 11.9729 27.1253 14.0001Z" fill="#007BFF"/>
<path id="Vector_17" d="M7.46277 21.7743L8.0814 21.1552L6.84415 19.918L6.22508 20.5366C6.14382 20.6179 6.07935 20.7143 6.03537 20.8205C5.99139 20.9267 5.96875 21.0405 5.96875 21.1554C5.96875 21.2704 5.99139 21.3842 6.03537 21.4904C6.07935 21.5965 6.14382 21.693 6.22508 21.7743C6.38921 21.9384 6.61182 22.0306 6.84393 22.0306C6.95886 22.0306 7.07266 22.008 7.17884 21.964C7.28503 21.92 7.3815 21.8555 7.46277 21.7743Z" fill="#2488FF"/>
</g>
</g>
</g>
<defs>
<clipPath id="clip0_725_12289">
<rect width="28" height="28" fill="white"/>
</clipPath>
</defs>
</svg>
