<svg width="24" height="24" viewBox="0 0 24 24" fill="none" xmlns="http://www.w3.org/2000/svg">
<path d="M16.8302 8.54236H18.4573C18.6731 8.54236 18.88 8.62807 19.0326 8.78064C19.1851 8.93322 19.2709 9.14015 19.2709 9.35592V10.5763H16.0166V9.35592C16.0166 9.14015 16.1023 8.93322 16.2549 8.78064C16.4075 8.62807 16.6144 8.54236 16.8302 8.54236ZM6.25391 18.7119H8.69458V22.7796H6.25391V18.7119Z" fill="#2980BA"/>
<path d="M7.47514 5.69492C7.36725 5.69492 7.26379 5.65206 7.1875 5.57577C7.11122 5.49949 7.06836 5.39602 7.06836 5.28814V0.40678C7.06836 0.298895 7.11122 0.195429 7.1875 0.119143C7.26379 0.042857 7.36725 0 7.47514 0C7.58302 0 7.68649 0.042857 7.76278 0.119143C7.83906 0.195429 7.88192 0.298895 7.88192 0.40678V5.28814C7.88192 5.39602 7.83906 5.49949 7.76278 5.57577C7.68649 5.65206 7.58302 5.69492 7.47514 5.69492Z" fill="#95A5A5"/>
<path d="M6.25497 5.28815H8.69564C8.91141 5.28815 9.11834 5.37386 9.27092 5.52643C9.42349 5.67901 9.5092 5.88594 9.5092 6.10171V7.32205H5.44141V6.10171C5.44141 5.88594 5.52712 5.67901 5.67969 5.52643C5.83226 5.37386 6.0392 5.28815 6.25497 5.28815Z" fill="#3B97D3"/>
<path d="M10.7292 7.72881V18.3051H4.2207V7.72881C4.22135 7.51324 4.30727 7.30668 4.4597 7.15425C4.61213 7.00182 4.81869 6.9159 5.03426 6.91525H9.91562C10.1312 6.9159 10.3377 7.00182 10.4902 7.15425C10.6426 7.30668 10.7285 7.51324 10.7292 7.72881Z" fill="#90BAE1"/>
<path d="M8.69528 7.72881V18.3051H4.2207V7.72881C4.22135 7.51324 4.30727 7.30668 4.4597 7.15425C4.61213 7.00182 4.81869 6.9159 5.03426 6.91525H7.88172C8.09729 6.9159 8.30385 7.00182 8.45628 7.15425C8.60872 7.30668 8.69464 7.51324 8.69528 7.72881Z" fill="#B0D3F0"/>
<path d="M10.7292 13.0169V17.4915H4.2207V13.0169C4.2207 13.0169 4.62748 14.2373 6.66138 14.2373C7.37431 14.245 8.07642 14.0625 8.69528 13.7085C9.31765 13.379 9.8424 13.0169 10.7292 13.0169Z" fill="#F0C419"/>
<path d="M3 17.4915H11.9492V17.8983C11.9492 18.2219 11.8206 18.5323 11.5917 18.7612C11.3629 18.9901 11.0525 19.1186 10.7288 19.1186H4.22034C3.89669 19.1186 3.58629 18.9901 3.35743 18.7612C3.12857 18.5323 3 18.2219 3 17.8983V17.4915ZM5.0339 22.3729H9.91525C10.131 22.3729 10.338 22.4586 10.4905 22.6112C10.6431 22.7637 10.7288 22.9707 10.7288 23.1864V24H4.22034V23.1864C4.22034 22.9707 4.30605 22.7637 4.45862 22.6112C4.6112 22.4586 4.81813 22.3729 5.0339 22.3729Z" fill="#3B97D3"/>
<path d="M5.84782 15.8644C5.84782 15.9723 5.80496 16.0758 5.72868 16.1521C5.65239 16.2283 5.54893 16.2712 5.44104 16.2712H4.2207V15.4576H5.44104C5.54893 15.4576 5.65239 15.5005 5.72868 15.5768C5.80496 15.6531 5.84782 15.7565 5.84782 15.8644ZM5.84782 12.2034C5.84782 12.3113 5.80496 12.4148 5.72868 12.491C5.65239 12.5673 5.54893 12.6102 5.44104 12.6102H4.2207V11.7966H5.44104C5.54893 11.7966 5.65239 11.8395 5.72868 11.9158C5.80496 11.9921 5.84782 12.0955 5.84782 12.2034ZM5.84782 10.1695C5.84782 10.2774 5.80496 10.3809 5.72868 10.4571C5.65239 10.5334 5.54893 10.5763 5.44104 10.5763H4.2207V9.76273H5.44104C5.54893 9.76273 5.65239 9.80558 5.72868 9.88187C5.80496 9.95815 5.84782 10.0616 5.84782 10.1695Z" fill="#285680"/>
<path d="M21.7118 15.7261V23.1864C21.7111 23.402 21.6252 23.6086 21.4728 23.761C21.3203 23.9134 21.1138 23.9994 20.8982 24H14.3897C14.1742 23.9994 13.9676 23.9134 13.8152 23.761C13.6627 23.6086 13.5768 23.402 13.5762 23.1864V15.7261C13.576 15.5124 13.6179 15.3007 13.6996 15.1032C13.7813 14.9056 13.9011 14.7261 14.0521 14.5749L15.1341 13.4929C15.2852 13.3417 15.405 13.1622 15.4866 12.9646C15.5683 12.7671 15.6102 12.5554 15.6101 12.3417V11.3898H19.6779V12.3417C19.6777 12.5554 19.7196 12.7671 19.8013 12.9646C19.883 13.1622 20.0027 13.3417 20.1538 13.4929L21.2358 14.5749C21.3869 14.7261 21.5067 14.9056 21.5883 15.1032C21.67 15.3007 21.7119 15.5124 21.7118 15.7261Z" fill="#90BAE1"/>
<path d="M19.6779 15.7261V23.1864C19.6772 23.402 19.5913 23.6086 19.4389 23.761C19.2864 23.9134 19.0799 23.9994 18.8643 24H14.3897C14.1742 23.9994 13.9676 23.9134 13.8152 23.761C13.6627 23.6086 13.5768 23.402 13.5762 23.1864V15.7261C13.576 15.5124 13.6179 15.3007 13.6996 15.1032C13.7813 14.9056 13.9011 14.7261 14.0521 14.5749L15.1341 13.4929C15.2852 13.3417 15.405 13.1622 15.4866 12.9646C15.5683 12.7671 15.6102 12.5554 15.6101 12.3417V11.3898H17.644V12.3417C17.6438 12.5554 17.6857 12.7671 17.7674 12.9646C17.8491 13.1622 17.9688 13.3417 18.1199 13.4929L19.2019 14.5749C19.353 14.7261 19.4728 14.9056 19.5544 15.1032C19.6361 15.3007 19.678 15.5124 19.6779 15.7261Z" fill="#B0D3F0"/>
<path d="M20.085 10.1695H15.2037C14.979 10.1695 14.7969 10.3516 14.7969 10.5763V11.3898C14.7969 11.6145 14.979 11.7966 15.2037 11.7966H20.085C20.3097 11.7966 20.4918 11.6145 20.4918 11.3898V10.5763C20.4918 10.3516 20.3097 10.1695 20.085 10.1695Z" fill="#3B97D3"/>
<path d="M13.5762 16.678H21.7118V21.5593H13.5762V16.678Z" fill="#E64C3C"/>
<path d="M18.4577 18.7119H18.0509V18.3051C18.0509 18.1972 18.0081 18.0937 17.9318 18.0175C17.8555 17.9412 17.7521 17.8983 17.6442 17.8983C17.5363 17.8983 17.4328 17.9412 17.3565 18.0175C17.2802 18.0937 17.2374 18.1972 17.2374 18.3051V18.7119H16.8306C16.7227 18.7119 16.6193 18.7547 16.543 18.831C16.4667 18.9073 16.4238 19.0108 16.4238 19.1187C16.4238 19.2265 16.4667 19.33 16.543 19.4063C16.6193 19.4826 16.7227 19.5254 16.8306 19.5254H17.2374V19.9322C17.2374 20.0401 17.2802 20.1436 17.3565 20.2199C17.4328 20.2961 17.5363 20.339 17.6442 20.339C17.7521 20.339 17.8555 20.2961 17.9318 20.2199C18.0081 20.1436 18.0509 20.0401 18.0509 19.9322V19.5254H18.4577C18.5656 19.5254 18.6691 19.4826 18.7454 19.4063C18.8216 19.33 18.8645 19.2265 18.8645 19.1187C18.8645 19.0108 18.8216 18.9073 18.7454 18.831C18.6691 18.7547 18.5656 18.7119 18.4577 18.7119Z" fill="#ECF0F1"/>
<path d="M10.7292 13.0169V17.4915H8.69531V13.7085C9.31769 13.379 9.84243 13.0169 10.7292 13.0169Z" fill="#F29C1F"/>
</svg>
