<svg width="18" height="18" viewBox="0 0 18 18" fill="none" xmlns="http://www.w3.org/2000/svg">
<path d="M17.25 12.5663C17.25 10.6755 16.5248 9.64728 15.5408 9.09453C15.4598 3.71253 13.4332 1.30728 9 1.30728C4.56675 1.30728 2.535 3.71778 2.4585 9.11403C1.5165 9.66153 0.75 10.6778 0.75 12.5663C0.75 16.2338 3.4785 16.6575 5.53125 16.6575C5.8545 16.6575 6.141 16.4505 6.243 16.143C7.008 13.8368 7.008 11.295 6.243 8.98878C6.141 8.68203 5.8545 8.47428 5.53125 8.47428C5.17575 8.47428 4.602 8.47428 3.9735 8.58528C4.17525 3.81528 6.135 2.80578 9 2.80578C11.865 2.80578 13.8255 3.81603 14.0265 8.58828C13.5 8.49903 12.9645 8.47428 12.4688 8.47428C12.1455 8.47428 11.859 8.68128 11.757 8.98878C11.0962 10.9815 11.007 13.149 11.4878 15.1898C10.6898 15.2033 9.9255 15.18 9.20475 15.1215C8.784 15.0908 8.43 15.396 8.397 15.8093C8.364 16.2218 8.6715 16.5833 9.084 16.617C9.71325 16.6673 10.3725 16.6935 11.0557 16.6935C11.523 16.6935 12.0015 16.6815 12.489 16.6575C13.6913 16.6575 17.25 16.635 17.25 12.5663ZM4.97775 15.1448C2.976 15.0413 2.25 14.3265 2.25 12.5663C2.25 10.806 2.976 10.0913 4.97775 9.98778C5.43075 11.6685 5.43075 13.4633 4.97775 15.144V15.1448ZM13.0223 15.1448C12.5693 13.464 12.5693 11.6685 13.0223 9.98853C15.024 10.092 15.75 10.8068 15.75 12.567C15.75 14.3273 15.024 15.0413 13.0223 15.1448Z" fill="#8F97A0"/>
</svg>
