<svg width="24" height="24" viewBox="0 0 24 24" fill="none" xmlns="http://www.w3.org/2000/svg">
<path d="M11.9935 22C11.2915 21.9934 10.6204 21.7057 10.1255 21.1993L4.388 15.3771C4.13949 15.1229 4 14.7789 4 14.4204C4 14.0618 4.13949 13.7178 4.388 13.4636C4.51204 13.3364 4.65962 13.2354 4.82221 13.1665C4.98481 13.0976 5.15921 13.0621 5.33535 13.0621C5.51149 13.0621 5.68589 13.0976 5.84849 13.1665C6.01109 13.2354 6.15866 13.3364 6.2827 13.4636L10.6592 17.9286L10.6592 4.35714C10.6592 3.99721 10.7998 3.65201 11.05 3.3975C11.3002 3.14298 11.6396 3 11.9935 3C12.3474 3 12.6867 3.14298 12.937 3.3975C13.1872 3.65201 13.3278 3.99721 13.3278 4.35714L13.3278 17.9286L17.7176 13.4636C17.9671 13.208 18.3062 13.0637 18.6602 13.0625C19.0143 13.0612 19.3544 13.203 19.6056 13.4568C19.8569 13.7105 19.9987 14.0554 20 14.4156C20.0012 14.7757 19.8618 15.1216 19.6123 15.3771L13.8748 21.1993C13.3767 21.709 12.7001 21.997 11.9935 22Z" fill="#00A832"/>
</svg>
