<svg width="20" height="21" viewBox="0 0 20 21" fill="none" xmlns="http://www.w3.org/2000/svg">
<g clip-path="url(#clip0_947_9078)">
<path d="M16.2792 3.10168L14.8992 1.72002C14.5131 1.33194 14.0538 1.0243 13.548 0.814887C13.0422 0.605474 12.4999 0.498453 11.9525 0.500017H6.66667C5.562 0.50134 4.50296 0.940752 3.72185 1.72187C2.94073 2.50298 2.50132 3.56202 2.5 4.66668V16.3334C2.50132 17.438 2.94073 18.4971 3.72185 19.2782C4.50296 20.0593 5.562 20.4987 6.66667 20.5H13.3333C14.438 20.4987 15.497 20.0593 16.2782 19.2782C17.0593 18.4971 17.4987 17.438 17.5 16.3334V6.04752C17.5013 5.50017 17.3941 4.95799 17.1846 4.45234C16.975 3.9467 16.6673 3.48762 16.2792 3.10168ZM15.1008 4.28002C15.219 4.39778 15.3249 4.52735 15.4167 4.66668H13.3333V2.58335C13.4724 2.67612 13.6022 2.78217 13.7208 2.90002L15.1008 4.28002ZM15.8333 16.3334C15.8333 16.9964 15.5699 17.6323 15.1011 18.1011C14.6323 18.57 13.9964 18.8334 13.3333 18.8334H6.66667C6.00363 18.8334 5.36774 18.57 4.8989 18.1011C4.43006 17.6323 4.16667 16.9964 4.16667 16.3334V4.66668C4.16667 4.00364 4.43006 3.36776 4.8989 2.89892C5.36774 2.43008 6.00363 2.16668 6.66667 2.16668H11.6667V4.66668C11.6667 5.10871 11.8423 5.53263 12.1548 5.84519C12.4674 6.15776 12.8913 6.33335 13.3333 6.33335H15.8333V16.3334ZM13.3333 8.00002C13.5543 8.00002 13.7663 8.08781 13.9226 8.24409C14.0789 8.40038 14.1667 8.61234 14.1667 8.83335C14.1667 9.05436 14.0789 9.26633 13.9226 9.42261C13.7663 9.57889 13.5543 9.66668 13.3333 9.66668H6.66667C6.44565 9.66668 6.23369 9.57889 6.07741 9.42261C5.92113 9.26633 5.83333 9.05436 5.83333 8.83335C5.83333 8.61234 5.92113 8.40038 6.07741 8.24409C6.23369 8.08781 6.44565 8.00002 6.66667 8.00002H13.3333ZM14.1667 12.1667C14.1667 12.3877 14.0789 12.5997 13.9226 12.7559C13.7663 12.9122 13.5543 13 13.3333 13H6.66667C6.44565 13 6.23369 12.9122 6.07741 12.7559C5.92113 12.5997 5.83333 12.3877 5.83333 12.1667C5.83333 11.9457 5.92113 11.7337 6.07741 11.5774C6.23369 11.4211 6.44565 11.3334 6.66667 11.3334H13.3333C13.5543 11.3334 13.7663 11.4211 13.9226 11.5774C14.0789 11.7337 14.1667 11.9457 14.1667 12.1667ZM14.0067 15.0109C14.1362 15.1891 14.1899 15.4113 14.156 15.629C14.1221 15.8467 14.0034 16.0421 13.8258 16.1725C12.9815 16.7742 11.9815 17.1194 10.9458 17.1667C10.3407 17.1638 9.75402 16.9584 9.27917 16.5834C9.00583 16.3959 8.90167 16.3334 8.69583 16.3334C8.13869 16.4196 7.61301 16.6474 7.16917 16.995C6.99312 17.1205 6.7752 17.1727 6.56141 17.1405C6.34762 17.1083 6.15471 16.9943 6.0234 16.8226C5.8921 16.6508 5.83268 16.4348 5.85771 16.22C5.88273 16.0053 5.99023 15.8087 6.1575 15.6717C6.89182 15.1016 7.77357 14.753 8.69917 14.6667C9.25428 14.6756 9.79094 14.8674 10.2258 15.2125C10.4241 15.3908 10.6793 15.4927 10.9458 15.5C11.6272 15.449 12.2825 15.2162 12.8433 14.8259C13.0222 14.6962 13.2452 14.6429 13.4633 14.6776C13.6814 14.7123 13.8769 14.8321 14.0067 15.0109Z" fill="#007BFF"/>
</g>
<defs>
<clipPath id="clip0_947_9078">
<rect width="20" height="20" fill="white" transform="translate(0 0.5)"/>
</clipPath>
</defs>
</svg>
