<svg width="24" height="24" viewBox="0 0 24 24" fill="none" xmlns="http://www.w3.org/2000/svg">
<path d="M6.23529 17.7647H7.27418L15.7042 9.33465L14.6654 8.29577L6.23529 16.7258V17.7647ZM5.74447 19C5.53351 19 5.35673 18.9286 5.21412 18.7859C5.07137 18.6433 5 18.4665 5 18.2555V16.8288C5 16.628 5.03857 16.4366 5.11571 16.2546C5.19271 16.0726 5.2988 15.914 5.434 15.7788L15.8628 5.35473C15.9873 5.24164 16.1247 5.15427 16.2751 5.09265C16.4257 5.03088 16.5836 5 16.7487 5C16.9138 5 17.0737 5.0293 17.2284 5.08791C17.3832 5.14652 17.5203 5.23972 17.6395 5.3675L18.6453 6.38579C18.7731 6.50507 18.8641 6.64232 18.9185 6.79756C18.9728 6.95279 19 7.10803 19 7.26326C19 7.42893 18.9717 7.58698 18.9152 7.73741C18.8586 7.88798 18.7687 8.02551 18.6453 8.15L8.22124 18.566C8.08604 18.7012 7.92744 18.8073 7.74544 18.8843C7.56344 18.9614 7.37204 19 7.17124 19H5.74447ZM15.1757 8.82426L14.6654 8.29577L15.7042 9.33465L15.1757 8.82426Z" fill="#007BFF"/>
</svg>
