<svg width="20" height="21" viewBox="0 0 20 21" fill="none" xmlns="http://www.w3.org/2000/svg">
<g clip-path="url(#clip0_3161_9455)">
<path d="M10 10.9166C10.5156 10.9166 10.957 10.7289 11.3242 10.3536C11.6914 9.97822 11.875 9.527 11.875 8.99992C11.875 8.47284 11.6914 8.02162 11.3242 7.64627C10.957 7.27093 10.5156 7.08325 10 7.08325C9.48438 7.08325 9.04297 7.27093 8.67578 7.64627C8.30859 8.02162 8.125 8.47284 8.125 8.99992C8.125 9.527 8.30859 9.97822 8.67578 10.3536C9.04297 10.7289 9.48438 10.9166 10 10.9166ZM10 20.4999C7.48437 18.3117 5.60547 16.2793 4.36328 14.4025C3.12109 12.5258 2.5 10.7888 2.5 9.19159C2.5 6.79575 3.25391 4.88707 4.76172 3.46554C6.26953 2.04402 8.01563 1.33325 10 1.33325C11.9844 1.33325 13.7305 2.04402 15.2383 3.46554C16.7461 4.88707 17.5 6.79575 17.5 9.19159C17.5 10.7888 16.8789 12.5258 15.6367 14.4025C14.3945 16.2793 12.5156 18.3117 10 20.4999Z" fill="#F42424"/>
</g>
<defs>
<clipPath id="clip0_3161_9455">
<rect width="20" height="20" fill="white" transform="translate(0 0.5)"/>
</clipPath>
</defs>
</svg>
