<svg width="24" height="24" viewBox="0 0 24 24" fill="none" xmlns="http://www.w3.org/2000/svg">
<path d="M13.7146 22.2858C13.5291 22.2858 13.3486 22.2256 13.2002 22.1144L9.77051 19.5429C9.66402 19.4631 9.57759 19.3596 9.51806 19.2405C9.45853 19.1215 9.42754 18.9903 9.42754 18.8572V14.0401L3.4119 7.27464C2.98467 6.79282 2.70571 6.19791 2.60857 5.56141C2.51142 4.92491 2.60022 4.27391 2.86429 3.68665C3.12836 3.09939 3.55645 2.60086 4.09713 2.25098C4.63781 1.9011 5.26806 1.71476 5.91213 1.71436H18.0875C18.7315 1.71511 19.3616 1.90176 19.902 2.25188C20.4425 2.60199 20.8703 3.10067 21.1341 3.688C21.3979 4.27533 21.4864 4.92631 21.389 5.56271C21.2916 6.19911 21.0125 6.79387 20.5851 7.2755L14.572 14.0401V21.4286C14.572 21.656 14.4817 21.874 14.3209 22.0347C14.1601 22.1955 13.942 22.2858 13.7146 22.2858ZM11.1424 18.4286L12.8572 19.7144V13.7144C12.8574 13.5045 12.9346 13.302 13.0741 13.1452L19.3058 6.13636C19.5136 5.90157 19.6492 5.61182 19.6963 5.30189C19.7435 4.99195 19.7001 4.67502 19.5714 4.38912C19.4428 4.10322 19.2343 3.86052 18.9711 3.69015C18.7079 3.51977 18.401 3.42897 18.0875 3.42864H5.91213C5.5987 3.42912 5.29206 3.51997 5.02899 3.6903C4.76592 3.86063 4.55759 4.10321 4.42898 4.38894C4.30036 4.67468 4.25693 4.99143 4.3039 5.30122C4.35086 5.61102 4.48622 5.90069 4.69374 6.1355L10.9263 13.1452C11.0656 13.3021 11.1424 13.5046 11.1424 13.7144V18.4286Z" fill="#5E646B"/>
</svg>
