<svg width="16" height="16" viewBox="0 0 16 16" fill="none" xmlns="http://www.w3.org/2000/svg">
<g clip-path="url(#clip0_658_4596)">
<path d="M7.97278 16.0053L7.50806 15.607C6.86741 15.0705 1.27344 10.2394 1.27344 6.70551C1.27344 3.00557 4.27284 0.00616455 7.97278 0.00616455C11.6727 0.00616455 14.6721 3.00557 14.6721 6.70551C14.6721 10.2394 9.07816 15.0706 8.44016 15.6096L7.97278 16.0053ZM7.97278 1.45476C5.07425 1.45804 2.72534 3.80695 2.72206 6.70548C2.72206 8.92554 6.16369 12.472 7.97278 14.0953C9.78191 12.4714 13.2235 8.92285 13.2235 6.70548C13.2202 3.80695 10.8713 1.45807 7.97278 1.45476Z" fill="#5E646B"/>
<path d="M7.97392 9.36105C6.5073 9.36105 5.31836 8.17211 5.31836 6.70549C5.31836 5.23886 6.5073 4.04993 7.97392 4.04993C9.44055 4.04993 10.6295 5.23886 10.6295 6.70549C10.6295 8.17211 9.44058 9.36105 7.97392 9.36105ZM7.97392 5.37768C7.24061 5.37768 6.64614 5.97215 6.64614 6.70546C6.64614 7.43877 7.24061 8.03324 7.97392 8.03324C8.70723 8.03324 9.3017 7.43877 9.3017 6.70546C9.3017 5.97215 8.70727 5.37768 7.97392 5.37768Z" fill="#5E646B"/>
</g>
<defs>
<clipPath id="clip0_658_4596">
<rect width="16" height="16" fill="white"/>
</clipPath>
</defs>
</svg>
