<svg width="868" height="863" viewBox="0 0 868 863" fill="none" xmlns="http://www.w3.org/2000/svg">
    <rect width="868" height="863" fill="white" />
    <path fill-rule="evenodd" clip-rule="evenodd"
        d="M271.72 201.574C232.107 209.098 197.42 236.302 178.568 274.631C171.654 288.689 168.326 298.397 165.432 312.953C163.611 322.11 163.396 325.932 163.825 341.576C164.369 361.431 165.989 370.833 171.585 386.631C180.195 410.933 194.507 432.318 216.942 454.407C223.047 460.417 229.625 466.594 231.56 468.133L235.077 470.931L247.06 460.993C253.65 455.528 259.678 450.421 260.454 449.645C261.671 448.431 259.277 445.581 243.224 429.132C218.162 403.45 209.789 390.826 202.763 368.131C200.322 360.243 200.129 358.263 200.089 340.631C200.051 323.798 200.31 320.664 202.36 313.153C207.517 294.258 216.134 278.715 228.352 266.269C257.199 236.884 299.849 227.586 339.469 242.045C358.37 248.943 369.888 257.529 400.042 287.2C412.692 299.647 424.482 310.574 426.242 311.481C430.805 313.833 437.299 313.579 441.684 310.876C443.688 309.641 454.031 300.135 464.669 289.75C496.335 258.839 509.363 248.985 528.157 241.727C542.353 236.244 551.575 234.779 567.992 235.401C579.2 235.825 583.862 236.472 591.042 238.598C611.532 244.668 625.221 252.622 639.098 266.523C657.207 284.663 667.01 307.258 668.252 333.72C669.168 353.253 665.814 369.594 657.428 386.455C650.263 400.861 645.74 406.568 621.755 431.477C612.797 440.779 605.597 448.508 605.755 448.651C610.257 452.746 632.953 471.131 633.505 471.131C634.82 471.131 661.059 443.69 669.609 433.372C685.994 413.601 694.179 398.213 699.979 376.281C706.738 350.719 705.639 320.898 696.967 294.527C693.137 282.881 683.449 263.689 677.081 255.131C660.787 233.236 638.349 216.49 614.042 208.084C596.842 202.136 586.908 200.634 565.042 200.676C548.229 200.709 543.418 201.068 534.854 202.929C521.101 205.918 509.135 210.235 496.542 216.749C482.009 224.266 476.776 228.447 455.375 249.643C440.168 264.704 436.193 268.131 433.931 268.131C431.677 268.131 427.763 264.787 413.099 250.329C391.442 228.977 385.053 224.048 368.042 215.569C345.476 204.32 331.056 201.139 300.042 200.569C284.86 200.29 277.014 200.568 271.72 201.574ZM317.042 527.747C309.892 533.585 303.895 538.75 303.716 539.224C303.192 540.61 421.686 658.808 425.542 660.747C427.503 661.733 431.32 662.519 434.222 662.533C438.586 662.555 440.241 661.979 444.722 658.876C447.648 656.85 476.016 629.191 507.761 597.411L565.48 539.631L551.936 528.631C544.488 522.581 537.962 517.476 537.434 517.286C536.907 517.097 516.352 537.203 491.758 561.967C467.164 586.731 444.8 608.823 442.06 611.062C435.938 616.063 432.458 616.332 426.942 612.232C424.797 610.638 402.344 588.588 377.046 563.232C351.748 537.876 330.823 517.131 330.546 517.131C330.269 517.131 324.192 521.908 317.042 527.747Z"
        fill="#EE0C0CFF" />
    <path fill-rule="evenodd" clip-rule="evenodd"
        d="M423.892 360.403C421.225 362.203 410.906 370.415 400.963 378.653C391.019 386.891 377.122 398.356 370.079 404.131C316.335 448.202 231.187 519.312 229.322 521.684C220.081 533.431 225.072 549.295 239.19 553.05C245.547 554.741 252.305 552.878 259.796 547.371C265.021 543.529 314.192 503.54 407.542 427.212C417.167 419.342 426.49 412.279 428.26 411.517C432.49 409.695 436.32 409.825 440.209 411.923C441.95 412.862 465.098 431.406 491.648 453.131C518.198 474.856 544.925 496.681 551.043 501.631C557.16 506.581 572.377 518.956 584.857 529.131C610.395 549.951 616.167 553.562 623.901 553.555C638.763 553.543 647.195 538.45 639.865 524.983C637.183 520.056 634.964 518.077 597.542 487.236C571.992 466.179 569.759 464.124 567.727 459.801C565.868 455.846 565.689 453.089 565.373 423.576C564.921 381.452 565.571 382.69 543.983 382.813C530.954 382.887 526.739 384.086 524.368 388.391C523.582 389.817 522.984 396.719 522.723 407.382L522.311 424.132L515.677 418.942C512.028 416.087 495.407 402.474 478.741 388.691C462.076 374.908 446.121 362.169 443.286 360.381C436.163 355.89 430.572 355.897 423.892 360.403ZM424.674 479.209C411.452 481.807 400.364 493.395 398.847 506.199L398.263 511.131H414.403H430.542V494.631C430.542 485.556 430.205 478.18 429.792 478.241C429.379 478.301 427.076 478.736 424.674 479.209ZM437.16 478.846C436.82 479.186 436.542 486.589 436.542 495.298V511.131H453.042H469.542L469.532 507.381C469.512 499.752 462.607 488.831 454.542 483.675C449.499 480.452 438.586 477.42 437.16 478.846ZM398.184 521.881C397.843 523.944 397.559 531.368 397.553 538.381L397.542 551.131H414.042H430.542V534.631V518.131H414.673H398.804L398.184 521.881ZM437.209 518.798C436.842 519.164 436.542 526.589 436.542 535.298V551.131H453.042H469.542V534.631V518.131H453.709C445 518.131 437.575 518.431 437.209 518.798Z"
        fill="black" />
</svg>
