<svg width="32" height="32" viewBox="0 0 32 32" fill="none" xmlns="http://www.w3.org/2000/svg">
<g clip-path="url(#clip0_709_19458)">
<path d="M16 16.6666C16.825 16.6666 17.5313 16.3663 18.1188 15.7658C18.7063 15.1652 19 14.4433 19 13.5999C19 12.7566 18.7063 12.0346 18.1188 11.4341C17.5313 10.8335 16.825 10.5333 16 10.5333C15.175 10.5333 14.4688 10.8335 13.8813 11.4341C13.2938 12.0346 13 12.7566 13 13.5999C13 14.4433 13.2938 15.1652 13.8813 15.7658C14.4688 16.3663 15.175 16.6666 16 16.6666ZM16 31.9999C11.975 28.4988 8.96875 25.2469 6.98125 22.2441C4.99375 19.2413 4 16.4621 4 13.9066C4 10.0733 5.20625 7.01936 7.61875 4.74492C10.0313 2.47047 12.825 1.33325 16 1.33325C19.175 1.33325 21.9688 2.47047 24.3813 4.74492C26.7938 7.01936 28 10.0733 28 13.9066C28 16.4621 27.0063 19.2413 25.0188 22.2441C23.0312 25.2469 20.025 28.4988 16 31.9999Z" fill="#F42424"/>
</g>
<defs>
<clipPath id="clip0_709_19458">
<rect width="32" height="32" fill="white"/>
</clipPath>
</defs>
</svg>
