<svg width="38" height="36" viewBox="0 0 38 36" fill="none" xmlns="http://www.w3.org/2000/svg">
<rect x="0.5" y="0.5" width="37" height="35" rx="9.5" stroke="#E6F2FF"/>
<g clip-path="url(#clip0_546_6660)">
<path d="M16.8531 15.4132C15.8869 14.9573 15.0746 14.6755 15.064 14.672C14.8754 14.6075 14.7754 14.4018 14.8399 14.2128C14.871 14.1222 14.9367 14.0476 15.0226 14.0055C15.1086 13.9634 15.2077 13.9572 15.2981 13.9883C15.3452 14.0048 16.2154 14.3058 17.2464 14.7997C17.5563 14.9481 17.1777 15.5669 16.8531 15.4132Z" fill="#BDD9E5"/>
<path d="M11.1084 20.2599C11.1084 18.3065 11.5414 16.331 11.9018 15.0257C12.1495 14.1278 12.9654 13.5066 13.8953 13.5066C14.8253 13.5066 15.6412 14.1276 15.8889 15.0257C16.2493 16.331 16.6823 18.3065 16.6823 20.2599" fill="#E3F4FC"/>
<path d="M13.8951 13.5066C13.4025 13.5066 12.9702 14.1278 12.8389 15.0255C12.6485 16.331 12.4191 18.3067 12.4191 20.2599H11.1084C11.1084 18.3067 11.5412 16.331 11.9014 15.0255C12.1492 14.1278 12.9655 13.5066 13.8951 13.5066Z" fill="#BDD9E5"/>
<path d="M17.8003 11.6114L18.4022 9.68685C18.8667 8.20082 18.0409 6.61861 16.5578 6.15317C15.0746 5.68754 13.4957 6.51495 13.031 8.00098L12.4293 9.92553C11.9646 11.4116 12.7904 12.9938 14.2735 13.4592C15.7567 13.9248 17.3358 13.0974 17.8003 11.6114Z" fill="#FFDC8D"/>
<path d="M13.4178 10.3325L14.0467 8.32065C14.2791 7.57745 14.7899 6.99915 15.4284 6.6647C15.9171 6.40859 16.4802 6.2954 17.0504 6.36129C16.8929 6.27643 16.7276 6.20682 16.5569 6.15342C15.8151 5.9206 15.0496 6.01101 14.4113 6.34551C13.773 6.67991 13.2621 7.25821 13.0297 8.00142L12.936 8.3012C12.6879 8.14875 12.3687 8.12621 12.092 8.27115C11.6733 8.49053 11.5114 9.00848 11.7304 9.42803C11.8751 9.70546 12.1499 9.86928 12.4405 9.88596L12.428 9.9256C11.9633 11.4119 12.7891 12.994 14.2725 13.4597C14.4431 13.5134 14.6185 13.5506 14.7962 13.571C13.6303 12.9441 13.0076 11.6444 13.4178 10.3325Z" fill="#E8C57E"/>
<path d="M18.4022 9.68709C16.3844 9.4563 15.119 7.80964 15.119 7.80964C14.7305 8.32665 14.3667 8.56919 14.0651 8.67176C13.7223 8.78805 13.3512 8.68111 13.0952 8.42481C13.0478 8.37723 12.9948 8.33552 12.9375 8.30059L13.0311 8.00117C13.2634 7.25816 13.7743 6.67972 14.4126 6.34527C15.0509 6.01077 15.8167 5.92036 16.5583 6.15317C18.0412 6.61861 18.867 8.20078 18.4023 9.68704L18.4022 9.68709Z" fill="#5C5E70"/>
<path d="M14.0484 8.32093C14.2807 7.57773 14.7916 6.99943 15.4299 6.66498C15.9183 6.40905 16.4808 6.29582 17.0504 6.36134C16.8933 6.27665 16.7285 6.20706 16.5582 6.15351C15.8165 5.92069 15.0509 6.0111 14.4126 6.3456C13.7743 6.68 13.2634 7.25849 13.0311 8.00151L12.9375 8.30092C12.9943 8.33563 13.0472 8.37705 13.0951 8.42515C13.3173 8.64749 13.6262 8.7572 13.9279 8.70638L14.0484 8.32093ZM16.7552 11.4462C16.7187 11.4462 16.6823 11.4406 16.6474 11.4296C16.6022 11.4154 16.5603 11.3924 16.5239 11.362C16.4876 11.3316 16.4576 11.2943 16.4356 11.2522C16.4137 11.2102 16.4002 11.1642 16.396 11.1169C16.3918 11.0697 16.3969 11.022 16.411 10.9768L16.5526 10.5234C16.5812 10.432 16.6449 10.3557 16.7297 10.3113C16.8145 10.2669 16.9134 10.258 17.0047 10.2866C17.0499 10.3007 17.0918 10.3237 17.1282 10.3541C17.1645 10.3845 17.1945 10.4218 17.2165 10.4639C17.2384 10.5059 17.2519 10.5519 17.2561 10.5992C17.2603 10.6464 17.2552 10.6941 17.241 10.7393L17.0995 11.1927C17.0765 11.2662 17.0307 11.3304 16.9688 11.376C16.9069 11.4216 16.8321 11.4462 16.7552 11.4462ZM15.3325 10.9997C15.296 10.9997 15.2596 10.9941 15.2247 10.983C15.1795 10.9688 15.1376 10.9459 15.1012 10.9155C15.0649 10.885 15.0349 10.8477 15.0129 10.8057C14.991 10.7636 14.9775 10.7177 14.9733 10.6704C14.969 10.6232 14.9741 10.5755 14.9883 10.5302L15.13 10.0769C15.1586 9.98543 15.2223 9.9091 15.307 9.86468C15.3918 9.82026 15.4906 9.81139 15.5819 9.84002C15.6271 9.85419 15.6691 9.87714 15.7055 9.90758C15.7419 9.93801 15.7719 9.97532 15.7939 10.0174C15.8158 10.0594 15.8293 10.1054 15.8335 10.1527C15.8378 10.2 15.8326 10.2477 15.8185 10.293L15.6768 10.7461C15.6538 10.8196 15.608 10.8838 15.5461 10.9294C15.4842 10.975 15.4094 10.9997 15.3325 10.9997Z" fill="#3B3D4C"/>
<path d="M28.7353 29.3543H8.55371V25.6024H28.7353V29.3543Z" fill="#5C5E70"/>
<path d="M28.7353 26.7638H8.55371V24.6602H28.7353V26.7638Z" fill="#3B3D4C"/>
<path d="M17.1119 23.0854L16.0138 23.3412L6.86035 23.416V20.2133C8.88038 20.5901 9.73932 20.397 12.2354 18.7685C13.7289 17.7947 16.0138 17.7571 16.0138 17.7571L16.6534 18.7682L17.1119 23.0854Z" fill="#4BC999"/>
<path d="M16.0148 23.3414L6.86133 23.4159V22.1263C9.04012 22.9449 14.9476 21.9687 16.3702 21.9687L16.4139 22.6017L16.0148 23.3414Z" fill="#3AAF80"/>
<path d="M6.8607 24.445C6.81333 24.445 6.76642 24.4356 6.72266 24.4175C6.67889 24.3993 6.63913 24.3727 6.60563 24.3391C6.57214 24.3055 6.54557 24.2657 6.52744 24.2218C6.50932 24.178 6.49999 24.131 6.5 24.0835V21.8952C6.5 21.6957 6.66148 21.5339 6.8607 21.5339C7.05992 21.5339 7.22145 21.6957 7.22145 21.8952V24.0835C7.22146 24.131 7.21213 24.178 7.19401 24.2219C7.17588 24.2657 7.14931 24.3056 7.11581 24.3391C7.08231 24.3727 7.04253 24.3993 6.99876 24.4175C6.95499 24.4356 6.90808 24.445 6.8607 24.445Z" fill="#3B3D4C"/>
<path d="M6.8604 24.4627C6.86024 24.6124 6.8896 24.7606 6.9468 24.8989C7.00399 25.0372 7.08789 25.1628 7.19368 25.2685C7.39965 25.4747 7.68385 25.6024 7.99787 25.6024H29.2896C29.9178 25.6024 30.427 25.0922 30.427 24.4627C30.427 24.295 30.3909 24.1356 30.325 23.9919C30.2688 23.8671 30.1904 23.7536 30.0938 23.6569C29.9883 23.5509 29.8629 23.4668 29.7249 23.4095C29.5869 23.3522 29.439 23.3228 29.2896 23.323H7.99782C7.53714 23.323 7.1409 23.5973 6.96235 23.9919C6.89478 24.1396 6.85998 24.3002 6.86035 24.4627H6.8604Z" fill="#BDD9E5"/>
<path d="M14.1924 21.6388C11.7728 22.163 9.90666 22.3422 8.76741 22.4002C8.34845 22.4213 7.99491 22.4286 7.70926 22.4286C7.24121 22.4286 6.95504 22.4094 6.86035 22.4017V21.6777C6.87137 21.6777 6.88285 21.6782 6.89443 21.6791C6.90268 21.6801 7.17676 21.7043 7.69534 21.7043C8.78991 21.7043 10.974 21.5963 14.0399 20.9323C14.0862 20.9222 14.134 20.9214 14.1807 20.9299C14.2273 20.9384 14.2718 20.956 14.3116 20.9817C14.3514 21.0075 14.3858 21.0408 14.4127 21.0799C14.4397 21.1189 14.4586 21.1629 14.4686 21.2093C14.4786 21.2557 14.4795 21.3036 14.471 21.3503C14.4626 21.397 14.445 21.4415 14.4194 21.4814C14.3938 21.5213 14.3605 21.5557 14.3216 21.5828C14.2826 21.6098 14.2387 21.6288 14.1924 21.6388Z" fill="#3AAF80"/>
<path d="M6.96294 23.9919C7.01944 24.1164 7.09777 24.2297 7.19422 24.3264C7.40019 24.5326 7.68439 24.6603 7.99841 24.6603H29.2901C29.7504 24.6603 30.1472 24.3862 30.3256 23.992C30.2694 23.8672 30.191 23.7537 30.0943 23.6569C29.9888 23.5509 29.8635 23.4669 29.7255 23.4096C29.5875 23.3523 29.4395 23.3228 29.2901 23.323H7.99836C7.53767 23.323 7.14144 23.5973 6.96289 23.9919H6.96294Z" fill="#E3F4FC"/>
<path d="M6.8607 22.7632C6.76506 22.7631 6.67334 22.725 6.60571 22.6573C6.53807 22.5895 6.50005 22.4976 6.5 22.4018V20.2134C6.5 20.1176 6.538 20.0257 6.60565 19.9579C6.67329 19.8901 6.76504 19.852 6.8607 19.852C6.95637 19.852 7.04811 19.8901 7.11576 19.9579C7.1834 20.0257 7.22141 20.1176 7.22141 20.2134V22.4018C7.22137 22.4976 7.18335 22.5895 7.11572 22.6573C7.04808 22.7251 6.95636 22.7632 6.8607 22.7632V22.7632Z" fill="#5C5E70"/>
<path d="M30.4988 20.8781C30.494 22.4246 29.2238 23.6653 27.6848 23.6875C27.6708 23.688 27.6568 23.6882 27.6429 23.6881H25.6721C24.8949 23.6881 24.1912 23.3724 23.682 22.8625C23.1706 22.3499 22.855 21.6415 22.8574 20.8589C22.8627 19.2991 24.1556 18.0495 25.7124 18.049C25.636 17.7444 25.7287 17.4061 25.9909 17.1835C26.3059 16.9161 26.7782 16.9161 27.0932 17.1835C27.3557 17.4056 27.4482 17.7444 27.3712 18.049H27.6843C28.4615 18.049 29.1652 18.3645 29.6744 18.8743C30.1862 19.3868 30.5017 20.0955 30.4988 20.8781Z" fill="#FFDC8D"/>
<path d="M30.4988 20.8782C30.494 22.4247 29.2238 23.6654 27.6848 23.6876C27.6708 23.6881 27.6568 23.6883 27.6429 23.6882H25.6721C24.8949 23.6882 24.1912 23.3724 23.682 22.8626C23.1706 22.35 22.855 21.6416 22.8574 20.859C22.8579 20.6801 22.8757 20.5018 22.9104 20.3264C23.02 20.8859 23.2952 21.3861 23.6819 21.7741C24.1912 22.2839 24.8948 22.5995 25.6721 22.5995H27.6429C27.657 22.5995 27.6709 22.5995 27.6848 22.5991C29.0425 22.5793 30.191 21.6112 30.4458 20.3216C30.4819 20.5049 30.4997 20.6914 30.4988 20.8782H30.4988Z" fill="#E8C57E"/>
<path d="M27.6851 23.6882C27.3019 21.6898 28.4917 19.9877 28.4917 19.9877C27.8833 19.7707 27.5434 19.4953 27.3558 19.2376C27.1425 18.9447 27.1335 18.5578 27.301 18.2364C27.3321 18.1768 27.356 18.1138 27.3721 18.0485H27.6852C28.4624 18.0485 29.166 18.3643 29.6753 18.8745C30.1848 19.3849 30.4997 20.09 30.4997 20.8685C30.4997 22.4256 29.2395 23.6882 27.6851 23.6882Z" fill="#5C5E70"/>
<path d="M30.4999 20.8681C30.4999 20.6814 30.4814 20.499 30.4468 20.3225C30.1914 21.6114 29.0431 22.5789 27.686 22.5986C27.672 22.599 27.658 22.5992 27.644 22.5991H27.6179C27.5969 22.9451 27.6131 23.3111 27.6854 23.6876C29.2398 23.6876 30.4999 22.425 30.4999 20.8681ZM26.3357 22.8927H25.8617C25.766 22.8927 25.6743 22.8546 25.6066 22.7868C25.539 22.719 25.501 22.6271 25.501 22.5313C25.501 22.4354 25.539 22.3435 25.6066 22.2757C25.6743 22.2079 25.766 22.1699 25.8617 22.1699H26.3357C26.4314 22.1699 26.5231 22.2079 26.5908 22.2757C26.6584 22.3435 26.6964 22.4354 26.6964 22.5313C26.6964 22.6271 26.6584 22.719 26.5908 22.7868C26.5231 22.8546 26.4314 22.8927 26.3357 22.8927ZM26.3357 21.3989H25.8617C25.766 21.3989 25.6743 21.3608 25.6066 21.293C25.539 21.2253 25.501 21.1333 25.501 21.0375C25.501 20.9416 25.539 20.8497 25.6066 20.7819C25.6743 20.7142 25.766 20.6761 25.8617 20.6761H26.3357C26.4314 20.6761 26.5231 20.7142 26.5908 20.7819C26.6584 20.8497 26.6964 20.9416 26.6964 21.0375C26.6964 21.1333 26.6584 21.2253 26.5908 21.293C26.5231 21.3608 26.4314 21.3989 26.3357 21.3989Z" fill="#3B3D4C"/>
<path d="M16.0146 17.7567C17.9642 17.7567 19.9356 18.1906 21.2386 18.5515C22.1347 18.7999 22.7548 19.6174 22.7548 20.549C22.7548 21.4806 22.1347 22.2984 21.2386 22.5466C19.9358 22.9076 17.9641 23.3415 16.0146 23.3415C16.0146 23.3414 17.053 20.9154 16.0146 17.7567Z" fill="#FFDC8D"/>
<path d="M22.7548 20.5493C22.7551 21.0027 22.6069 21.4437 22.3329 21.8046C22.0591 22.1652 21.6747 22.4258 21.2389 22.5466C19.9359 22.9075 17.964 23.3418 16.0146 23.3418C16.0146 23.3418 16.234 22.8296 16.3701 21.9689C18.2011 21.9447 20.0153 21.7394 21.2389 21.5664C21.6865 21.5033 22.0656 21.3679 22.3329 21.1887C22.5999 21.0094 22.7548 20.7867 22.7548 20.5493Z" fill="#E8C57E"/>
<path d="M19.8196 27.3616C19.7609 27.3617 19.7031 27.3474 19.6512 27.32C19.5993 27.2926 19.5548 27.2529 19.5217 27.2044C18.6341 25.9047 18.3501 24.1822 18.7004 22.2228C18.9608 20.7656 19.4731 19.6969 19.4947 19.6521C19.5817 19.4725 19.7974 19.3975 19.9767 19.4846C20.156 19.5717 20.2308 19.7878 20.1439 19.9675C20.134 19.988 19.6469 21.0121 19.4074 22.3681C19.0915 24.1543 19.3303 25.6442 20.1169 26.7962C20.2295 26.9607 20.1874 27.1857 20.023 27.2985C19.9631 27.3397 19.8922 27.3617 19.8196 27.3616Z" fill="#E8C57E"/>
<path d="M15.8453 16.3119C14.4882 15.8208 13.1763 15.5346 13.1621 15.5313C12.9679 15.4892 12.8439 15.2966 12.8862 15.1018C12.9279 14.9068 13.1198 14.7829 13.3147 14.8248C13.3753 14.8378 14.7945 15.1477 16.2524 15.6916C16.2667 15.6969 15.9109 16.3359 15.8453 16.3119Z" fill="#BDD9E5"/>
<path d="M19.4596 18.317C19.4596 18.4129 19.4216 18.5048 19.354 18.5726C19.2863 18.6403 19.1946 18.6784 19.0989 18.6784C19.0032 18.6784 18.9115 18.6403 18.8438 18.5726C18.7762 18.5048 18.7382 18.4129 18.7382 18.317C18.7382 17.7334 17.7557 17.0289 16.0416 16.3846C15.976 16.36 15.9103 16.3359 15.8447 16.3119L16.2518 15.6917C16.2661 15.697 16.2805 15.7028 16.295 15.7081C18.4247 16.5084 19.4596 17.3624 19.4596 18.317Z" fill="#E8C57E"/>
<path d="M20.6627 18.6221C20.6385 18.6936 20.5925 18.7558 20.5313 18.7998C20.47 18.8439 20.3966 18.8676 20.3212 18.8677C20.2827 18.8677 20.2437 18.8615 20.2053 18.8485C20.1604 18.8332 20.1189 18.8093 20.0833 18.7781C20.0476 18.7468 20.0185 18.7088 19.9975 18.6663C19.9765 18.6237 19.964 18.5774 19.9609 18.5301C19.9578 18.4827 19.964 18.4352 19.9791 18.3902C20.2919 17.4661 18.7826 16.4511 17.8548 15.9283C17.52 15.7399 17.1782 15.5668 16.8535 15.4131L17.2468 14.7996C17.5566 14.948 17.8807 15.1133 18.2012 15.2941C20.2005 16.4194 21.0287 17.5387 20.6627 18.6221V18.6221Z" fill="#E8C57E"/>
</g>
<defs>
<clipPath id="clip0_546_6660">
<rect width="24" height="24" fill="white" transform="translate(6.5 6)"/>
</clipPath>
</defs>
</svg>
