<svg width="18" height="18" viewBox="0 0 18 18" fill="none" xmlns="http://www.w3.org/2000/svg">
<path d="M8.75 2.25C9.1642 2.25 9.5 2.58579 9.5 3C9.5 3.41421 9.1642 3.75 8.75 3.75C8.3358 3.75 8 3.41421 8 3C8 2.58579 8.3358 2.25 8.75 2.25ZM8.75 8.24997C9.1642 8.24997 9.5 8.58577 9.5 8.99997C9.5 9.41417 9.1642 9.74997 8.75 9.74997C8.3358 9.74997 8 9.41417 8 8.99997C8 8.58577 8.3358 8.24997 8.75 8.24997ZM8.75 14.25C9.1642 14.25 9.5 14.5858 9.5 15C9.5 15.4142 9.1642 15.75 8.75 15.75C8.3358 15.75 8 15.4142 8 15C8 14.5858 8.3358 14.25 8.75 14.25Z" fill="black" stroke="#8F97A0" stroke-width="1.5"/>
</svg>
