<svg width="18" height="18" viewBox="0 0 18 18" fill="none" xmlns="http://www.w3.org/2000/svg">
<g clip-path="url(#clip0_1194_11265)">
<path d="M15 0H3C2.20435 0 1.44129 0.316071 0.87868 0.87868C0.316071 1.44129 0 2.20435 0 3L0 12C0 12.7956 0.316071 13.5587 0.87868 14.1213C1.44129 14.6839 2.20435 15 3 15H5.175L8.51325 17.8223C8.64867 17.9369 8.82034 17.9997 8.99775 17.9997C9.17516 17.9997 9.34683 17.9369 9.48225 17.8223L12.825 15H15C15.7956 15 16.5587 14.6839 17.1213 14.1213C17.6839 13.5587 18 12.7956 18 12V3C18 2.20435 17.6839 1.44129 17.1213 0.87868C16.5587 0.316071 15.7956 0 15 0ZM16.5 12C16.5 12.3978 16.342 12.7794 16.0607 13.0607C15.7794 13.342 15.3978 13.5 15 13.5H12.825C12.4705 13.5001 12.1274 13.6258 11.8568 13.8547L9 16.2675L6.14475 13.8547C5.87367 13.6255 5.53005 13.4998 5.175 13.5H3C2.60218 13.5 2.22064 13.342 1.93934 13.0607C1.65804 12.7794 1.5 12.3978 1.5 12V3C1.5 2.60218 1.65804 2.22064 1.93934 1.93934C2.22064 1.65804 2.60218 1.5 3 1.5H15C15.3978 1.5 15.7794 1.65804 16.0607 1.93934C16.342 2.22064 16.5 2.60218 16.5 3V12Z" fill="#8F97A0"/>
<path d="M5.25 5.25H9C9.19891 5.25 9.38968 5.17098 9.53033 5.03033C9.67098 4.88968 9.75 4.69891 9.75 4.5C9.75 4.30109 9.67098 4.11032 9.53033 3.96967C9.38968 3.82902 9.19891 3.75 9 3.75H5.25C5.05109 3.75 4.86032 3.82902 4.71967 3.96967C4.57902 4.11032 4.5 4.30109 4.5 4.5C4.5 4.69891 4.57902 4.88968 4.71967 5.03033C4.86032 5.17098 5.05109 5.25 5.25 5.25Z" fill="#8F97A0"/>
<path d="M12.75 6.75H5.25C5.05109 6.75 4.86032 6.82902 4.71967 6.96967C4.57902 7.11032 4.5 7.30109 4.5 7.5C4.5 7.69891 4.57902 7.88968 4.71967 8.03033C4.86032 8.17098 5.05109 8.25 5.25 8.25H12.75C12.9489 8.25 13.1397 8.17098 13.2803 8.03033C13.421 7.88968 13.5 7.69891 13.5 7.5C13.5 7.30109 13.421 7.11032 13.2803 6.96967C13.1397 6.82902 12.9489 6.75 12.75 6.75Z" fill="#8F97A0"/>
<path d="M12.75 9.75H5.25C5.05109 9.75 4.86032 9.82902 4.71967 9.96967C4.57902 10.1103 4.5 10.3011 4.5 10.5C4.5 10.6989 4.57902 10.8897 4.71967 11.0303C4.86032 11.171 5.05109 11.25 5.25 11.25H12.75C12.9489 11.25 13.1397 11.171 13.2803 11.0303C13.421 10.8897 13.5 10.6989 13.5 10.5C13.5 10.3011 13.421 10.1103 13.2803 9.96967C13.1397 9.82902 12.9489 9.75 12.75 9.75Z" fill="#8F97A0"/>
</g>
<defs>
<clipPath id="clip0_1194_11265">
<rect width="18" height="18" fill="white"/>
</clipPath>
</defs>
</svg>
