<svg width="18" height="18" viewBox="0 0 18 18" fill="none" xmlns="http://www.w3.org/2000/svg">
<g clip-path="url(#clip0_1194_11252)">
<path d="M6 8.25009C4.96425 8.25009 4.125 7.41084 4.125 6.37509C4.125 5.33934 4.96425 4.50009 6 4.50009C7.03575 4.50009 7.875 5.33934 7.875 6.37509C7.875 7.41084 7.03575 8.25009 6 8.25009ZM17.25 8.25009C16.8353 8.25009 16.5 8.58609 16.5 9.00009V11.2501C16.5 12.4906 15.4905 13.5001 14.25 13.5001H3.75C2.5095 13.5001 1.5 12.4906 1.5 11.2501V5.25009C1.5 4.00959 2.5095 3.00009 3.75 3.00009H8.25C8.664 3.00009 9 2.66409 9 2.25009C9 1.83609 8.664 1.50009 8.25 1.50009H3.75C1.68225 1.50009 0 3.18234 0 5.25009V11.2501C0 13.3178 1.68225 15.0001 3.75 15.0001H8.25V16.5001H5.25C4.836 16.5001 4.5 16.8353 4.5 17.2501C4.5 17.6648 4.836 18.0001 5.25 18.0001H12.75C13.1648 18.0001 13.5 17.6648 13.5 17.2501C13.5 16.8353 13.1648 16.5001 12.75 16.5001H9.75V15.0001H14.25C16.3177 15.0001 18 13.3178 18 11.2501V9.00009C18 8.58609 17.6647 8.25009 17.25 8.25009ZM3.04725 10.9868C2.90175 11.3746 3.09825 11.8066 3.486 11.9521C3.87525 12.0968 4.3065 11.9018 4.452 11.5126C4.67925 10.9066 5.301 10.4993 5.99925 10.4993C6.6975 10.4993 7.32 10.9066 7.5465 11.5126C7.69125 11.9056 8.1345 12.0953 8.5125 11.9521C8.90025 11.8066 9.09675 11.3738 8.95125 10.9868C8.50575 9.79809 7.31925 9.00009 5.9985 9.00009C4.67775 9.00009 3.49125 9.79809 3.04575 10.9868H3.04725ZM18 2.25009V4.50009C18 5.74059 16.9905 6.75009 15.75 6.75009H13.7648L12.1695 8.03334C11.823 8.27484 11.4218 8.31984 11.0595 8.13309C10.7168 7.95459 10.503 7.60359 10.5015 7.21734V2.25084C10.5 1.01034 11.5095 0.000841452 12.75 0.000841452H15.7493C16.9598 -0.0254085 18.0247 1.03959 18 2.25009ZM16.5 2.25009C16.5082 1.84659 16.1542 1.49184 15.75 1.50009H12.75C12.336 1.50084 12 1.83759 12 2.25084V6.24459L13.0297 5.41509C13.1632 5.30784 13.329 5.24934 13.5 5.24934H15.75C16.164 5.24934 16.5 4.91259 16.5 4.49934V2.25009Z" fill="#8F97A0"/>
</g>
<defs>
<clipPath id="clip0_1194_11252">
<rect width="18" height="18" fill="white"/>
</clipPath>
</defs>
</svg>
