<svg width="20" height="20" viewBox="0 0 20 20" fill="none" xmlns="http://www.w3.org/2000/svg">
<path d="M17.4047 12.7759L14.2567 17.905C13.911 18.4717 13.4404 18.9521 12.8807 19.3098C12.321 19.6675 11.687 19.893 11.0269 19.9692C10.8529 19.9898 10.6779 20.0001 10.5028 20C9.60598 19.9988 8.7315 19.7208 7.99903 19.2042C7.24212 19.7704 6.30712 20.0472 5.36345 19.9843C4.41977 19.9215 3.52985 19.5233 2.85491 18.8617C2.17997 18.2002 1.76468 17.3191 1.68426 16.3782C1.60384 15.4373 1.86363 14.4987 2.41655 13.7326L1.31908 12.6384C0.850466 12.1705 0.493951 11.6027 0.27624 10.9777C0.0585289 10.3526 -0.0147363 9.68653 0.0619312 9.02922C0.138599 8.37191 0.363212 7.74044 0.718949 7.1821C1.07469 6.62375 1.55233 6.15301 2.1161 5.80512L6.92911 2.83348C8.23289 1.99913 9.76613 1.59462 11.3125 1.677C12.8589 1.75938 14.3403 2.32451 15.5478 3.29264L16.9323 1.91015C17.0093 1.83056 17.1014 1.76708 17.2032 1.7234C17.3051 1.67973 17.4146 1.65674 17.5254 1.65578C17.6362 1.65482 17.7461 1.6759 17.8487 1.7178C17.9512 1.7597 18.0444 1.82158 18.1228 1.89982C18.2011 1.97807 18.2631 2.07111 18.3051 2.17352C18.347 2.27594 18.3681 2.38567 18.3672 2.49632C18.3662 2.60696 18.3432 2.71631 18.2995 2.81798C18.2557 2.91965 18.1921 3.01161 18.1124 3.08848L16.7295 4.47013C17.657 5.63032 18.2167 7.04046 18.337 8.52009C18.4573 9.99972 18.1327 11.4815 17.4047 12.7759ZM6.72714 18.0392L3.62335 14.9392C3.3808 15.3723 3.28725 15.873 3.35705 16.3643C3.42685 16.8556 3.65614 17.3105 4.00976 17.6592C4.36647 17.9975 4.82019 18.216 5.30744 18.2842C5.79468 18.3523 6.29106 18.2667 6.72714 18.0392ZM15.007 5.03929C14.0802 4.105 12.8602 3.51683 11.5512 3.37317C10.2421 3.22952 8.92328 3.53911 7.81543 4.25013L2.99408 7.22178C2.64442 7.43758 2.3482 7.72957 2.12758 8.07589C1.90697 8.42221 1.76769 8.81388 1.72016 9.22157C1.67263 9.62926 1.7181 10.0424 1.85315 10.4301C1.98821 10.8177 2.20934 11.1698 2.50001 11.4601L8.58407 17.5359C8.8752 17.8269 9.22863 18.0482 9.61777 18.1832C10.0069 18.3182 10.4216 18.3633 10.8308 18.3152C11.2399 18.267 11.6328 18.1269 11.9798 17.9053C12.3269 17.6837 12.6191 17.3865 12.8346 17.0359L15.9684 11.9317C16.5805 10.834 16.8178 9.56707 16.6443 8.32268C16.4708 7.07828 15.896 5.9242 15.007 5.03513V5.03929ZM16.0744 20C15.8981 20.0003 15.7263 19.9449 15.5835 19.8417C15.4408 19.7385 15.3344 19.5929 15.2796 19.4256C15.2248 19.2583 15.2245 19.078 15.2787 18.9105C15.3329 18.7431 15.4387 18.597 15.5812 18.4933C17.0425 17.3963 18.0315 15.7856 18.3478 13.9875C18.37 13.8793 18.4135 13.7766 18.4758 13.6853C18.5381 13.594 18.618 13.516 18.7108 13.4558C18.8035 13.3956 18.9074 13.3544 19.0162 13.3347C19.1251 13.3149 19.2368 13.317 19.3449 13.3407C19.4529 13.3645 19.5552 13.4095 19.6457 13.473C19.7362 13.5366 19.8131 13.6175 19.872 13.7111C19.9309 13.8046 19.9705 13.9089 19.9887 14.0179C20.0068 14.1269 20.0031 14.2383 19.9777 14.3459C19.5688 16.5389 18.3515 18.4992 16.566 19.84C16.4232 19.9439 16.2511 20 16.0744 20ZM0.830857 4.78263C0.676713 4.78194 0.52577 4.73864 0.394766 4.65753C0.263762 4.57642 0.157815 4.46067 0.0886713 4.32311C0.019528 4.18554 -0.0101095 4.03155 0.0030448 3.8782C0.0161991 3.72484 0.0716314 3.57812 0.163195 3.45431C1.52437 1.63815 3.52806 0.408768 5.76571 0.0168365C5.98262 -0.0273659 6.20824 0.0162828 6.39293 0.13818C6.57761 0.260078 6.70624 0.450239 6.75051 0.666831C6.79478 0.883422 6.75106 1.1087 6.62898 1.29311C6.5069 1.47752 6.31645 1.60595 6.09954 1.65016C4.26178 1.95317 2.61287 2.95483 1.49852 4.44513C1.42122 4.54939 1.32061 4.6342 1.2047 4.69279C1.08878 4.75138 0.960774 4.78215 0.830857 4.78263Z" fill="#5E646B"/>
</svg>
