<svg width="20" height="20" viewBox="0 0 20 20" fill="none" xmlns="http://www.w3.org/2000/svg">
<path d="M8.5 18.25C8.5 18.6647 8.16475 19 7.75 19H4.75C2.68225 19 1 17.3177 1 15.25V4.75C1 2.68225 2.68225 1 4.75 1H10.75C12.8177 1 14.5 2.68225 14.5 4.75V6.25C14.5 6.66475 14.1648 7 13.75 7C13.3352 7 13 6.66475 13 6.25V4.75C13 3.5095 11.9905 2.5 10.75 2.5H4.75C3.5095 2.5 2.5 3.5095 2.5 4.75V15.25C2.5 16.4905 3.5095 17.5 4.75 17.5H7.75C8.16475 17.5 8.5 17.8353 8.5 18.25ZM11.5 5.5C11.5 5.08525 11.1648 4.75 10.75 4.75H4.75C4.33525 4.75 4 5.08525 4 5.5C4 5.91475 4.33525 6.25 4.75 6.25H10.75C11.1648 6.25 11.5 5.91475 11.5 5.5ZM8.5 9.25C8.5 8.83525 8.16475 8.5 7.75 8.5H4.75C4.33525 8.5 4 8.83525 4 9.25C4 9.66475 4.33525 10 4.75 10H7.75C8.16475 10 8.5 9.66475 8.5 9.25ZM4.75 12.25C4.33525 12.25 4 12.5852 4 13C4 13.4148 4.33525 13.75 4.75 13.75H6.25C6.66475 13.75 7 13.4148 7 13C7 12.5852 6.66475 12.25 6.25 12.25H4.75ZM19 13.75C19 16.6442 16.6442 19 13.75 19C10.8558 19 8.5 16.6442 8.5 13.75C8.5 10.8558 10.8558 8.5 13.75 8.5C16.6442 8.5 19 10.8558 19 13.75ZM17.5 13.75C17.5 11.6823 15.8177 10 13.75 10C11.6823 10 10 11.6823 10 13.75C10 15.8177 11.6823 17.5 13.75 17.5C15.8177 17.5 17.5 15.8177 17.5 13.75ZM15.106 12.8193L13.4387 14.4198C13.3307 14.5255 13.1545 14.5278 13.0472 14.4213L12.199 13.5903C11.902 13.2993 11.428 13.3038 11.1385 13.6007C10.8482 13.897 10.8527 14.371 11.149 14.6613L11.998 15.493C12.343 15.8297 12.7945 15.9985 13.2452 15.9985C13.696 15.9985 14.146 15.8298 14.485 15.4952L16.1448 13.9022C16.4433 13.615 16.453 13.1402 16.1665 12.8417C15.8793 12.5417 15.4038 12.5335 15.106 12.82V12.8193Z" fill="#00A832"/>
</svg>
