<svg width="18" height="18" viewBox="0 0 18 18" fill="none" xmlns="http://www.w3.org/2000/svg">
<path d="M9.00058 15.6677H4.33358C3.23083 15.6677 2.33343 14.7703 2.33343 13.6676V4.33358C2.33343 3.23083 3.23083 2.33343 4.33358 2.33343H7.3438C7.45247 2.33343 7.56048 2.33876 7.66715 2.34877V5.66701C7.66715 6.76975 8.56455 7.66715 9.6673 7.66715H13.5429C13.7489 7.66715 13.9436 7.57181 14.0696 7.40913C14.1956 7.24646 14.2396 7.03444 14.189 6.83509C13.9816 6.02437 13.5596 5.28231 12.9669 4.69027L10.644 2.36743C9.76264 1.48604 8.59055 1 7.3438 1H4.33358C2.49544 1 1 2.49544 1 4.33358V13.6676C1 15.5057 2.49544 17.0012 4.33358 17.0012H9.00058C9.36928 17.0012 9.6673 16.7031 9.6673 16.3345C9.6673 15.9658 9.36928 15.6677 9.00058 15.6677ZM9.00058 2.7728C9.25393 2.91814 9.48862 3.09815 9.7013 3.31017L12.0241 5.633C12.2335 5.84235 12.4135 6.07837 12.5602 6.33372H9.6673C9.29927 6.33372 9.00058 6.03503 9.00058 5.66701V2.7728ZM8.33387 13.0009C8.33387 13.3696 8.03585 13.6676 7.66715 13.6676H4.33358C3.96488 13.6676 3.66686 13.3696 3.66686 13.0009C3.66686 12.6322 3.96488 12.3342 4.33358 12.3342H7.66715C8.03585 12.3342 8.33387 12.6322 8.33387 13.0009ZM8.33387 10.334C8.33387 10.7027 8.03585 11.0007 7.66715 11.0007H4.33358C3.96488 11.0007 3.66686 10.7027 3.66686 10.334C3.66686 9.96532 3.96488 9.6673 4.33358 9.6673H7.66715C8.03585 9.6673 8.33387 9.96532 8.33387 10.334ZM16.0878 9.2106L13.5442 8.3672C13.4089 8.32187 13.2602 8.32187 13.1249 8.3672L10.5814 9.2106C10.0353 9.39128 9.66797 9.89998 9.66797 10.4747V12.6909C9.66797 15.071 12.1448 16.4931 12.9015 16.8712C12.9015 16.8712 13.1055 17.0105 13.3356 17.0105C13.5656 17.0105 13.7236 16.9065 13.7236 16.9065C14.4923 16.5971 17.0018 15.3784 17.0018 12.6915V10.4754C17.0018 9.90065 16.6345 9.39194 16.0884 9.21127L16.0878 9.2106ZM15.6677 12.6915C15.6677 14.4123 14.0523 15.3077 13.3649 15.6111C12.7555 15.2844 11.0007 14.2123 11.0007 12.6915V10.4767L13.3342 9.7033L15.6677 10.4754V12.6915Z" fill="#8F97A0"/>
</svg>
