<svg width="32" height="32" viewBox="0 0 32 32" fill="none" xmlns="http://www.w3.org/2000/svg">
<g id="User">
<path id="Vector" d="M16 5C13.2386 5 11 7.23857 11 10C11 12.7614 13.2386 15 16 15C18.7615 15 21 12.7614 21 10C21 7.23857 18.7615 5 16 5Z" fill="#007BFF"/>
<path id="Vector_2" d="M10.667 17.6665C7.90557 17.6665 5.66699 19.905 5.66699 22.6665V24.2509C5.66699 25.2552 6.39483 26.1114 7.38602 26.2733C13.0911 27.2048 18.9095 27.2048 24.6146 26.2733C25.6058 26.1114 26.3337 25.2552 26.3337 24.2509V22.6665C26.3337 19.905 24.0951 17.6665 21.3337 17.6665H20.8791C20.6331 17.6665 20.3887 17.7054 20.1549 17.7817L19.0009 18.1586C17.0511 18.7952 14.9495 18.7952 12.9998 18.1586L11.8458 17.7817C11.6119 17.7054 11.3675 17.6665 11.1215 17.6665H10.667Z" fill="#007BFF"/>
</g>
</svg>
