<svg width="18" height="18" viewBox="0 0 18 18" fill="none" xmlns="http://www.w3.org/2000/svg">
<g id="Frame" clip-path="url(#clip0_1194_11536)">
<path id="Vector" d="M5.5408 14.3572L9.05859 12.2354L12.5764 14.3852L11.6551 10.3648L14.7541 7.68461L10.6779 7.32166L9.05859 3.52468L7.43929 7.29374L3.36312 7.65669L6.46213 10.3648L5.5408 14.3572ZM4.1314 17.1775C3.70876 17.4325 3.18738 17.0539 3.29905 16.573L4.60021 10.9704L0.252058 7.20226C-0.120793 6.87915 0.077941 6.26665 0.569471 6.224L6.30746 5.72609L8.54442 0.443784C8.73676 -0.0103969 9.38043 -0.0103949 9.57277 0.443786L11.8097 5.72609L17.5477 6.224C18.0392 6.26665 18.238 6.87915 17.8651 7.20226L13.517 10.9704L14.8181 16.573C14.9298 17.0539 14.4084 17.4325 13.9858 17.1775L9.05859 14.2048L4.1314 17.1775Z" fill="#8F97A0"/>
</g>
<defs>
<clipPath id="clip0_1194_11536">
<rect width="18" height="18" fill="white"/>
</clipPath>
</defs>
</svg>
