<svg width="20" height="21" viewBox="0 0 20 21" fill="none" xmlns="http://www.w3.org/2000/svg">
<g id="user-add 1" clip-path="url(#clip0_546_3488)">
<path id="Vector" d="M19.1663 9.66669H17.4997V8.00002C17.4997 7.77901 17.4119 7.56705 17.2556 7.41076C17.0993 7.25448 16.8874 7.16669 16.6663 7.16669C16.4453 7.16669 16.2334 7.25448 16.0771 7.41076C15.9208 7.56705 15.833 7.77901 15.833 8.00002V9.66669H14.1663C13.9453 9.66669 13.7334 9.75448 13.5771 9.91076C13.4208 10.067 13.333 10.279 13.333 10.5C13.333 10.721 13.4208 10.933 13.5771 11.0893C13.7334 11.2456 13.9453 11.3334 14.1663 11.3334H15.833V13C15.833 13.221 15.9208 13.433 16.0771 13.5893C16.2334 13.7456 16.4453 13.8334 16.6663 13.8334C16.8874 13.8334 17.0993 13.7456 17.2556 13.5893C17.4119 13.433 17.4997 13.221 17.4997 13V11.3334H19.1663C19.3874 11.3334 19.5993 11.2456 19.7556 11.0893C19.9119 10.933 19.9997 10.721 19.9997 10.5C19.9997 10.279 19.9119 10.067 19.7556 9.91076C19.5993 9.75448 19.3874 9.66669 19.1663 9.66669Z" fill="#007BFF"/>
<path id="Vector_2" d="M7.5 10.5C8.48891 10.5 9.45561 10.2068 10.2779 9.65735C11.1001 9.10794 11.741 8.32705 12.1194 7.41342C12.4978 6.49979 12.5969 5.49446 12.4039 4.52455C12.211 3.55465 11.7348 2.66373 11.0355 1.96447C10.3363 1.26521 9.44536 0.789002 8.47545 0.596076C7.50555 0.40315 6.50021 0.502166 5.58658 0.880605C4.67295 1.25904 3.89206 1.89991 3.34265 2.72215C2.79324 3.5444 2.5 4.5111 2.5 5.5C2.50132 6.82568 3.02853 8.09668 3.96593 9.03407C4.90332 9.97147 6.17432 10.4987 7.5 10.5ZM7.5 2.16667C8.15927 2.16667 8.80374 2.36217 9.3519 2.72844C9.90006 3.09471 10.3273 3.6153 10.5796 4.22439C10.8319 4.83348 10.8979 5.5037 10.7693 6.1503C10.6407 6.79691 10.3232 7.39085 9.85702 7.85703C9.39085 8.3232 8.7969 8.64067 8.1503 8.76929C7.5037 8.8979 6.83348 8.83189 6.22439 8.5796C5.6153 8.32731 5.09471 7.90007 4.72843 7.3519C4.36216 6.80374 4.16667 6.15927 4.16667 5.5C4.16667 4.61595 4.51786 3.7681 5.14298 3.14298C5.7681 2.51786 6.61595 2.16667 7.5 2.16667Z" fill="#007BFF"/>
<path id="Vector_3" d="M7.5 12.1667C5.51155 12.1689 3.60518 12.9598 2.19914 14.3658C0.79309 15.7719 0.00220571 17.6782 0 19.6667C0 19.8877 0.0877974 20.0997 0.244078 20.2559C0.400358 20.4122 0.61232 20.5 0.833333 20.5C1.05435 20.5 1.26631 20.4122 1.42259 20.2559C1.57887 20.0997 1.66667 19.8877 1.66667 19.6667C1.66667 18.1196 2.28125 16.6359 3.37521 15.5419C4.46917 14.4479 5.9529 13.8334 7.5 13.8334C9.0471 13.8334 10.5308 14.4479 11.6248 15.5419C12.7188 16.6359 13.3333 18.1196 13.3333 19.6667C13.3333 19.8877 13.4211 20.0997 13.5774 20.2559C13.7337 20.4122 13.9457 20.5 14.1667 20.5C14.3877 20.5 14.5996 20.4122 14.7559 20.2559C14.9122 20.0997 15 19.8877 15 19.6667C14.9978 17.6782 14.2069 15.7719 12.8009 14.3658C11.3948 12.9598 9.48845 12.1689 7.5 12.1667Z" fill="#007BFF"/>
</g>
<defs>
<clipPath id="clip0_546_3488">
<rect width="20" height="20" fill="white" transform="translate(0 0.5)"/>
</clipPath>
</defs>
</svg>
