<svg width="16" height="19" viewBox="0 0 16 19" fill="none" xmlns="http://www.w3.org/2000/svg">
<path d="M7.99348 -3.49406e-07C7.2915 0.00660483 6.62036 0.29429 6.12547 0.800714L0.388003 6.62286C0.139489 6.87714 -5.14872e-07 7.22111 -4.992e-07 7.57964C-4.83527e-07 7.93818 0.139489 8.28215 0.388003 8.53643C0.512043 8.66363 0.659617 8.7646 0.822213 8.8335C0.984809 8.9024 1.15921 8.93787 1.33535 8.93787C1.51149 8.93787 1.68589 8.9024 1.84849 8.8335C2.01109 8.76459 2.15866 8.66363 2.2827 8.53643L6.65919 4.07143L6.65919 17.6429C6.65919 18.0028 6.79976 18.348 7.04999 18.6025C7.30022 18.857 7.6396 19 7.99348 19C8.34736 19 8.68674 18.857 8.93697 18.6025C9.1872 18.348 9.32778 18.0028 9.32778 17.6429L9.32778 4.07143L13.7176 8.53643C13.9671 8.79198 14.3062 8.93627 14.6602 8.93754C15.0143 8.93881 15.3544 8.79697 15.6056 8.54321C15.8569 8.28946 15.9987 7.94458 16 7.58444C16.0012 7.2243 15.8618 6.87841 15.6123 6.62286L9.87484 0.800714C9.37668 0.290989 8.70009 0.0030304 7.99348 -3.49406e-07Z" fill="#EE0C0C"/>
</svg>
