<svg width="18" height="18" viewBox="0 0 18 18" fill="none" xmlns="http://www.w3.org/2000/svg">
<g clip-path="url(#clip0_709_20548)">
<path d="M16.9022 5.49308L17.9747 4.44308L13.6622 0.0383301L12.5897 1.08833L14.2817 2.81333L12.6475 4.34408L11.9635 3.65933C11.7545 3.45036 11.5065 3.28459 11.2335 3.17149C10.9604 3.0584 10.6678 3.00019 10.3723 3.00019C10.0768 3.00019 9.78421 3.0584 9.5112 3.17149C9.2382 3.28459 8.99014 3.45036 8.7812 3.65933L2.25095 10.1896V14.6896L0.0332031 16.9073L1.0937 17.9678L3.31145 15.7501H7.81145L14.3417 9.21983C14.5507 9.01089 14.7164 8.76284 14.8295 8.48983C14.9426 8.21682 15.0008 7.92421 15.0008 7.62871C15.0008 7.3332 14.9426 7.04059 14.8295 6.76758C14.7164 6.49457 14.5507 6.24652 14.3417 6.03758L13.7087 5.40533L15.331 3.88808L16.9022 5.49308ZM13.2812 8.15933L7.19045 14.2501H3.75095V11.4668L5.18945 12.9053L6.24995 11.8448L4.4837 10.0786L5.6732 8.88908L7.43945 10.6553L8.49995 9.59483L6.7337 7.82858L7.9232 6.63908L9.68945 8.40533L10.75 7.34483L8.9837 5.57858L9.8417 4.71983C9.91136 4.6501 9.99407 4.59478 10.0851 4.55703C10.1762 4.51929 10.2738 4.49987 10.3723 4.49987C10.4709 4.49987 10.5685 4.51929 10.6595 4.55703C10.7506 4.59478 10.8333 4.6501 10.903 4.71983L13.2812 7.09808C13.3509 7.16774 13.4063 7.25045 13.444 7.3415C13.4817 7.43255 13.5012 7.53014 13.5012 7.62871C13.5012 7.72727 13.4817 7.82486 13.444 7.91591C13.4063 8.00696 13.3509 8.08967 13.2812 8.15933Z" fill="#8F97A0"/>
</g>
<defs>
<clipPath id="clip0_709_20548">
<rect width="18" height="18" fill="white"/>
</clipPath>
</defs>
</svg>
