<svg width="18" height="18" viewBox="0 0 18 18" fill="none" xmlns="http://www.w3.org/2000/svg">
<g clip-path="url(#clip0_1194_11531)">
<path d="M14.5001 11.0002C13.9331 11.0007 13.3746 11.1391 12.873 11.4036C12.3714 11.6681 11.9416 12.0506 11.6209 12.5182L6.73913 10.314C7.08586 9.47671 7.08721 8.53625 6.74288 7.69799L11.6179 5.48249C12.0933 6.17005 12.7994 6.66446 13.6081 6.87602C14.4168 7.08758 15.2745 7.00229 16.0257 6.63561C16.7769 6.26893 17.3718 5.64516 17.7025 4.87744C18.0332 4.10971 18.0778 3.24889 17.8281 2.45112C17.5785 1.65334 17.0512 0.97146 16.3419 0.529154C15.6326 0.0868477 14.7883 -0.0865834 13.962 0.0403193C13.1358 0.167222 12.3824 0.586053 11.8386 1.22084C11.2947 1.85563 10.9963 2.66432 10.9976 3.50024C11.0008 3.69809 11.0209 3.8953 11.0576 4.08974L5.87513 6.44474C5.37738 5.9784 4.75426 5.66761 4.08231 5.55056C3.41036 5.4335 2.71885 5.51527 2.09273 5.78583C1.46662 6.05639 0.933171 6.50394 0.557924 7.07351C0.182677 7.64308 -0.0180242 8.30985 -0.0195228 8.99192C-0.0210214 9.67399 0.176748 10.3416 0.549488 10.9129C0.922229 11.4841 1.45371 11.934 2.07862 12.2073C2.70354 12.4806 3.39469 12.5654 4.06715 12.4513C4.7396 12.3372 5.36409 12.0291 5.86388 11.565L11.0599 13.911C11.0238 14.1052 11.004 14.3022 11.0006 14.4997C11.0005 15.1921 11.2057 15.8689 11.5902 16.4447C11.9748 17.0204 12.5214 17.4691 13.161 17.7342C13.8007 17.9992 14.5045 18.0686 15.1836 17.9335C15.8626 17.7985 16.4864 17.4651 16.9759 16.9755C17.4655 16.486 17.7989 15.8622 17.9339 15.1832C18.0689 14.5041 17.9996 13.8003 17.7345 13.1607C17.4695 12.521 17.0208 11.9744 16.445 11.5898C15.8693 11.2053 15.1925 11.0001 14.5001 11.0002ZM14.5001 1.49999C14.8958 1.49984 15.2826 1.61703 15.6116 1.83673C15.9406 2.05643 16.1971 2.36877 16.3487 2.73425C16.5002 3.09974 16.5399 3.50195 16.4628 3.89001C16.3857 4.27807 16.1952 4.63455 15.9155 4.91436C15.6358 5.19418 15.2794 5.38476 14.8914 5.462C14.5034 5.53924 14.1011 5.49967 13.7356 5.3483C13.37 5.19693 13.0576 4.94055 12.8378 4.61159C12.618 4.28264 12.5006 3.89588 12.5006 3.50024C12.501 2.96999 12.7118 2.46156 13.0867 2.08655C13.4615 1.71154 13.9699 1.50058 14.5001 1.49999ZM3.50063 11.0002C3.10498 11.0004 2.71818 10.8832 2.38914 10.6635C2.06011 10.4438 1.80361 10.1315 1.6521 9.76597C1.50059 9.40048 1.46087 8.99828 1.53797 8.61022C1.61507 8.22216 1.80551 7.86568 2.08522 7.58586C2.36493 7.30605 2.72134 7.11547 3.10937 7.03823C3.4974 6.96099 3.89962 7.00055 4.26517 7.15193C4.63071 7.3033 4.94315 7.55967 5.16297 7.88863C5.3828 8.21759 5.50013 8.60434 5.50013 8.99999C5.49953 9.53017 5.2887 10.0385 4.91388 10.4135C4.53905 10.7884 4.03081 10.9994 3.50063 11.0002ZM14.5001 16.5C14.1045 16.5 13.7178 16.3827 13.3888 16.1629C13.0599 15.9431 12.8035 15.6307 12.6521 15.2652C12.5007 14.8997 12.4611 14.4975 12.5383 14.1095C12.6155 13.7215 12.806 13.3651 13.0857 13.0853C13.3655 12.8056 13.7219 12.6151 14.1099 12.5379C14.4979 12.4607 14.9001 12.5004 15.2656 12.6517C15.6311 12.8031 15.9435 13.0595 16.1633 13.3885C16.3831 13.7174 16.5004 14.1041 16.5004 14.4997C16.5 15.0301 16.2891 15.5387 15.9141 15.9137C15.539 16.2887 15.0305 16.4996 14.5001 16.5Z" fill="#8F97A0"/>
</g>
<defs>
<clipPath id="clip0_1194_11531">
<rect width="18" height="18" fill="white"/>
</clipPath>
</defs>
</svg>
