<svg width="33" height="32" viewBox="0 0 33 32" fill="none" xmlns="http://www.w3.org/2000/svg">
<g clip-path="url(#clip0_879_8860)">
<path d="M16.5 26.6454L8.40901 31.7611C8.10744 31.9458 7.80534 32.0234 7.50273 31.9939C7.20012 31.9645 6.92628 31.8576 6.68121 31.6734C6.43579 31.4888 6.24635 31.2476 6.1129 30.95C5.97979 30.6523 5.95847 30.323 6.04894 29.9621L8.19687 20.3298L1.05375 13.8469C0.786845 13.6037 0.61682 13.3221 0.54368 13.0019C0.470193 12.6817 0.489432 12.3706 0.601395 12.0686C0.713358 11.7669 0.874717 11.5204 1.08547 11.3288C1.29623 11.1373 1.58428 11.0121 1.94963 10.9532L11.3764 10.0897L15.0363 0.993813C15.1694 0.655454 15.3714 0.405228 15.6421 0.243136C15.9128 0.0810439 16.1988 0 16.5 0C16.8012 0 17.0872 0.0810439 17.3579 0.243136C17.6286 0.405228 17.8306 0.655454 17.9637 0.993813L21.6236 10.0897L31.0504 10.9532C31.4157 11.0121 31.7038 11.1373 31.9145 11.3288C32.1253 11.5204 32.2866 11.7669 32.3986 12.0686C32.5106 12.3706 32.5298 12.6817 32.4563 13.0019C32.3832 13.3221 32.2132 13.6037 31.9462 13.8469L24.8031 20.3298L26.9511 29.9621C27.0415 30.323 27.0202 30.6523 26.8871 30.95C26.7536 31.2476 26.5642 31.4888 26.3188 31.6734C26.0737 31.8576 25.7999 31.9645 25.4973 31.9939C25.1947 32.0234 24.8926 31.9458 24.591 31.7611L16.5 26.6454Z" fill="#B7C5D9"/>
</g>
<defs>
<clipPath id="clip0_879_8860">
<rect width="32" height="32" fill="white" transform="translate(0.5)"/>
</clipPath>
</defs>
</svg>
