<svg width="60" height="60" viewBox="0 0 60 60" fill="none" xmlns="http://www.w3.org/2000/svg">
<g clip-path="url(#clip0_1194_11038)">
<path d="M58.1859 15.2168C56.6109 9.41953 50.5816 3.38906 44.7832 1.81406C41.2277 0.928125 36.4652 0.0152344 30 0C23.5348 0.0152344 18.7723 0.928125 15.2168 1.81406C9.41953 3.38906 3.38906 9.41836 1.81406 15.2168C0.928125 18.7723 0.0152344 23.5348 0 30C0.0152344 36.4652 0.928125 41.2277 1.81406 44.7832C3.38906 50.5816 9.41953 56.6109 15.2168 58.1859C18.7723 59.0719 23.5371 59.9848 30 60C36.4641 59.9848 41.2277 59.0719 44.7832 58.1859C50.5816 56.6109 56.6109 50.5816 58.1859 44.7832C59.0719 41.2277 59.9848 36.4629 60 30C59.9848 23.5348 59.0719 18.7723 58.1859 15.2168Z" fill="#E5F4D9"/>
<path d="M30 10.0781C26.0598 10.0781 22.2081 11.2465 18.932 13.4356C15.6559 15.6246 13.1024 18.736 11.5946 22.3762C10.0868 26.0165 9.69224 30.0221 10.4609 33.8866C11.2296 37.751 13.127 41.3008 15.9131 44.0869C18.6992 46.873 22.249 48.7704 26.1134 49.5391C29.9779 50.3078 33.9835 49.9132 37.6238 48.4054C41.264 46.8976 44.3754 44.3441 46.5644 41.068C48.7535 37.7919 49.9219 33.9402 49.9219 30C49.9219 24.7164 47.823 19.6492 44.0869 15.9131C40.3508 12.177 35.2836 10.0781 30 10.0781Z" fill="url(#paint0_linear_1194_11038)"/>
<path d="M41.3682 26.6993L29.3881 39.2759C29.0618 39.6184 28.6698 39.8916 28.2355 40.0791C27.8011 40.2666 27.3334 40.3645 26.8604 40.3669H26.8451C26.3748 40.3669 25.9093 40.2725 25.4761 40.0893C25.0429 39.9061 24.6509 39.6379 24.3232 39.3005L17.9682 32.7532C17.6226 32.4276 17.3465 32.0354 17.1566 31.6002C16.9667 31.165 16.867 30.6958 16.8634 30.221C16.8598 29.7462 16.9524 29.2756 17.1356 28.8375C17.3189 28.3995 17.589 28.0031 17.9296 27.6723C18.2702 27.3415 18.6744 27.0831 19.1176 26.9128C19.5608 26.7424 20.0339 26.6636 20.5084 26.6811C20.9829 26.6986 21.449 26.812 21.8784 27.0145C22.3079 27.2171 22.6919 27.5045 23.0072 27.8595L26.8158 31.7841L36.2717 21.8536C36.5899 21.519 36.9708 21.2503 37.3928 21.0629C37.8149 20.8755 38.2696 20.773 38.7313 20.7614C39.1929 20.7497 39.6523 20.8291 40.0832 20.995C40.5141 21.1609 40.9081 21.41 41.2428 21.7282C41.5774 22.0464 41.8461 22.4274 42.0335 22.8494C42.2209 23.2714 42.3234 23.7262 42.335 24.1878C42.3467 24.6494 42.2673 25.1088 42.1014 25.5397C41.9355 25.9706 41.6863 26.3647 41.3682 26.6993Z" fill="url(#paint1_linear_1194_11038)"/>
</g>
<defs>
<linearGradient id="paint0_linear_1194_11038" x1="44.0895" y1="44.0895" x2="15.9106" y2="15.9105" gradientUnits="userSpaceOnUse">
<stop stop-color="#13B601"/>
<stop offset="0.52" stop-color="#13B601"/>
<stop offset="1" stop-color="#CBF4B4"/>
</linearGradient>
<linearGradient id="paint1_linear_1194_11038" x1="35.4666" y1="33.1997" x2="24.0479" y2="21.7798" gradientUnits="userSpaceOnUse">
<stop stop-color="#CBF4B4"/>
<stop offset="0.57" stop-color="white"/>
<stop offset="1" stop-color="white"/>
</linearGradient>
<clipPath id="clip0_1194_11038">
<rect width="60" height="60" fill="white"/>
</clipPath>
</defs>
</svg>
