<svg width="38" height="36" viewBox="0 0 38 36" fill="none" xmlns="http://www.w3.org/2000/svg">
<rect x="0.5" y="0.5" width="37" height="35" rx="9.5" stroke="#E6F2FF"/>
<path d="M23.8302 14.5424H25.4573C25.6731 14.5424 25.88 14.6281 26.0326 14.7806C26.1851 14.9332 26.2709 15.1401 26.2709 15.3559V16.5763H23.0166V15.3559C23.0166 15.1401 23.1023 14.9332 23.2549 14.7806C23.4075 14.6281 23.6144 14.5424 23.8302 14.5424ZM13.2539 24.7119H15.6946V28.7796H13.2539V24.7119Z" fill="#2980BA"/>
<path d="M14.4742 11.6949C14.3663 11.6949 14.2628 11.6521 14.1865 11.5758C14.1102 11.4995 14.0674 11.396 14.0674 11.2881V6.40678C14.0674 6.2989 14.1102 6.19543 14.1865 6.11914C14.2628 6.04286 14.3663 6 14.4742 6C14.582 6 14.6855 6.04286 14.7618 6.11914C14.8381 6.19543 14.8809 6.2989 14.8809 6.40678V11.2881C14.8809 11.396 14.8381 11.4995 14.7618 11.5758C14.6855 11.6521 14.582 11.6949 14.4742 11.6949Z" fill="#95A5A5"/>
<path d="M13.254 11.2881H15.6947C15.9104 11.2881 16.1174 11.3739 16.2699 11.5264C16.4225 11.679 16.5082 11.8859 16.5082 12.1017V13.322H12.4404V12.1017C12.4404 11.8859 12.5261 11.679 12.6787 11.5264C12.8313 11.3739 13.0382 11.2881 13.254 11.2881Z" fill="#3B97D3"/>
<path d="M17.7292 13.7288V24.3051H11.2207V13.7288C11.2213 13.5132 11.3073 13.3067 11.4597 13.1542C11.6121 13.0018 11.8187 12.9159 12.0343 12.9153H16.9156C17.1312 12.9159 17.3377 13.0018 17.4902 13.1542C17.6426 13.3067 17.7285 13.5132 17.7292 13.7288Z" fill="#90BAE1"/>
<path d="M15.6953 13.7288V24.3051H11.2207V13.7288C11.2213 13.5132 11.3073 13.3067 11.4597 13.1542C11.6121 13.0018 11.8187 12.9159 12.0343 12.9153H14.8817C15.0973 12.9159 15.3038 13.0018 15.4563 13.1542C15.6087 13.3067 15.6946 13.5132 15.6953 13.7288Z" fill="#B0D3F0"/>
<path d="M17.7292 19.0169V23.4915H11.2207V19.0169C11.2207 19.0169 11.6275 20.2373 13.6614 20.2373C14.3743 20.245 15.0764 20.0625 15.6953 19.7085C16.3177 19.379 16.8424 19.0169 17.7292 19.0169Z" fill="#F0C419"/>
<path d="M10 23.4915H18.9492V23.8983C18.9492 24.2219 18.8206 24.5323 18.5917 24.7612C18.3629 24.9901 18.0525 25.1186 17.7288 25.1186H11.2203C10.8967 25.1186 10.5863 24.9901 10.3574 24.7612C10.1286 24.5323 10 24.2219 10 23.8983V23.4915ZM12.0339 28.3729H16.9153C17.131 28.3729 17.338 28.4586 17.4905 28.6112C17.6431 28.7637 17.7288 28.9707 17.7288 29.1864V30H11.2203V29.1864C11.2203 28.9707 11.3061 28.7637 11.4586 28.6112C11.6112 28.4586 11.8181 28.3729 12.0339 28.3729Z" fill="#3B97D3"/>
<path d="M12.8478 21.8644C12.8478 21.9723 12.805 22.0758 12.7287 22.1521C12.6524 22.2283 12.5489 22.2712 12.441 22.2712H11.2207V21.4576H12.441C12.5489 21.4576 12.6524 21.5005 12.7287 21.5768C12.805 21.6531 12.8478 21.7565 12.8478 21.8644ZM12.8478 18.2034C12.8478 18.3113 12.805 18.4148 12.7287 18.491C12.6524 18.5673 12.5489 18.6102 12.441 18.6102H11.2207V17.7966H12.441C12.5489 17.7966 12.6524 17.8395 12.7287 17.9158C12.805 17.9921 12.8478 18.0955 12.8478 18.2034ZM12.8478 16.1695C12.8478 16.2774 12.805 16.3809 12.7287 16.4571C12.6524 16.5334 12.5489 16.5763 12.441 16.5763H11.2207V15.7627H12.441C12.5489 15.7627 12.6524 15.8056 12.7287 15.8819C12.805 15.9582 12.8478 16.0616 12.8478 16.1695Z" fill="#285680"/>
<path d="M28.7118 21.7261V29.1864C28.7111 29.402 28.6252 29.6086 28.4728 29.761C28.3203 29.9134 28.1138 29.9994 27.8982 30H21.3897C21.1742 29.9994 20.9676 29.9134 20.8152 29.761C20.6627 29.6086 20.5768 29.402 20.5762 29.1864V21.7261C20.576 21.5124 20.6179 21.3007 20.6996 21.1032C20.7813 20.9056 20.9011 20.7261 21.0521 20.5749L22.1341 19.4929C22.2852 19.3417 22.405 19.1622 22.4866 18.9646C22.5683 18.7671 22.6102 18.5554 22.6101 18.3417V17.3898H26.6779V18.3417C26.6777 18.5554 26.7196 18.7671 26.8013 18.9646C26.883 19.1622 27.0027 19.3417 27.1538 19.4929L28.2358 20.5749C28.3869 20.7261 28.5067 20.9056 28.5883 21.1032C28.67 21.3007 28.7119 21.5124 28.7118 21.7261Z" fill="#90BAE1"/>
<path d="M26.6779 21.7261V29.1864C26.6772 29.402 26.5913 29.6086 26.4389 29.761C26.2864 29.9134 26.0799 29.9994 25.8643 30H21.3897C21.1742 29.9994 20.9676 29.9134 20.8152 29.761C20.6627 29.6086 20.5768 29.402 20.5762 29.1864V21.7261C20.576 21.5124 20.6179 21.3007 20.6996 21.1032C20.7813 20.9056 20.9011 20.7261 21.0521 20.5749L22.1341 19.4929C22.2852 19.3417 22.405 19.1622 22.4866 18.9646C22.5683 18.7671 22.6102 18.5554 22.6101 18.3417V17.3898H24.644V18.3417C24.6438 18.5554 24.6857 18.7671 24.7674 18.9646C24.8491 19.1622 24.9688 19.3417 25.1199 19.4929L26.2019 20.5749C26.353 20.7261 26.4728 20.9056 26.5544 21.1032C26.6361 21.3007 26.678 21.5124 26.6779 21.7261Z" fill="#B0D3F0"/>
<path d="M27.085 16.1695H22.2037C21.979 16.1695 21.7969 16.3516 21.7969 16.5763V17.3898C21.7969 17.6145 21.979 17.7966 22.2037 17.7966H27.085C27.3097 17.7966 27.4918 17.6145 27.4918 17.3898V16.5763C27.4918 16.3516 27.3097 16.1695 27.085 16.1695Z" fill="#3B97D3"/>
<path d="M20.5762 22.678H28.7118V27.5593H20.5762V22.678Z" fill="#E64C3C"/>
<path d="M25.4577 24.7119H25.0509V24.3051C25.0509 24.1972 25.0081 24.0937 24.9318 24.0175C24.8555 23.9412 24.7521 23.8983 24.6442 23.8983C24.5363 23.8983 24.4328 23.9412 24.3565 24.0175C24.2802 24.0937 24.2374 24.1972 24.2374 24.3051V24.7119H23.8306C23.7227 24.7119 23.6193 24.7547 23.543 24.831C23.4667 24.9073 23.4238 25.0108 23.4238 25.1187C23.4238 25.2265 23.4667 25.33 23.543 25.4063C23.6193 25.4826 23.7227 25.5254 23.8306 25.5254H24.2374V25.9322C24.2374 26.0401 24.2802 26.1436 24.3565 26.2199C24.4328 26.2961 24.5363 26.339 24.6442 26.339C24.7521 26.339 24.8555 26.2961 24.9318 26.2199C25.0081 26.1436 25.0509 26.0401 25.0509 25.9322V25.5254H25.4577C25.5656 25.5254 25.6691 25.4826 25.7454 25.4063C25.8216 25.33 25.8645 25.2265 25.8645 25.1187C25.8645 25.0108 25.8216 24.9073 25.7454 24.831C25.6691 24.7547 25.5656 24.7119 25.4577 24.7119Z" fill="#ECF0F1"/>
<path d="M17.7292 19.0169V23.4915H15.6953V19.7085C16.3177 19.379 16.8424 19.0169 17.7292 19.0169Z" fill="#F29C1F"/>
</svg>
