<svg width="18" height="18" viewBox="0 0 18 18" fill="none" xmlns="http://www.w3.org/2000/svg">
<g clip-path="url(#clip0_1194_11256)">
<path d="M14.0343 9H10.4995C10.1017 9 9.72015 8.84197 9.43884 8.56066C9.15754 8.27936 8.9995 7.89783 8.9995 7.5V3.9555C9.00052 3.61049 8.92219 3.26986 8.77055 2.95996C8.61891 2.65005 8.39804 2.37917 8.125 2.16825C7.86628 1.96336 7.56392 1.82068 7.24128 1.75124C6.91865 1.6818 6.58436 1.68745 6.26425 1.76775C4.446 2.21911 2.83625 3.27755 1.70123 4.76802C0.566214 6.2585 -0.0260893 8.09173 0.0222748 9.96455C0.0706389 11.8374 0.756774 13.6376 1.96721 15.0675C3.17764 16.4974 4.83987 17.4713 6.679 17.8283C8.74683 18.2241 10.8877 17.8143 12.6633 16.6829C14.4388 15.5516 15.7147 13.7842 16.2295 11.7428C16.3101 11.4222 16.316 11.0875 16.2467 10.7643C16.1774 10.4412 16.0347 10.1383 15.8298 9.879C15.6163 9.60634 15.3439 9.3856 15.0329 9.23336C14.7219 9.08111 14.3805 9.00133 14.0343 9ZM14.7753 11.376C14.4881 12.5324 13.8989 13.5918 13.068 14.4458C12.2371 15.2998 11.1942 15.9177 10.0461 16.2364C8.89804 16.5552 7.68589 16.5632 6.53366 16.2598C5.38142 15.9563 4.33047 15.3523 3.48828 14.5094C2.6461 13.6665 2.04292 12.615 1.74042 11.4626C1.43793 10.3101 1.44698 9.09792 1.76665 7.95008C2.08633 6.80225 2.70515 5.75992 3.55983 4.92971C4.41451 4.0995 5.47437 3.51121 6.631 3.225C6.72995 3.20028 6.83332 3.19907 6.93282 3.22147C7.03232 3.24387 7.12519 3.28926 7.204 3.354C7.29707 3.42496 7.37255 3.5164 7.42457 3.62123C7.4766 3.72606 7.50378 3.84147 7.504 3.9585V7.5C7.504 8.29565 7.82008 9.05871 8.38268 9.62132C8.94529 10.1839 9.70835 10.5 10.504 10.5H14.038C14.1561 10.5005 14.2725 10.5277 14.3785 10.5797C14.4845 10.6317 14.5773 10.707 14.65 10.8C14.7138 10.8799 14.7582 10.9735 14.7798 11.0734C14.8014 11.1733 14.8003 11.2769 14.7753 11.376Z" fill="#8F97A0"/>
<path d="M17.7377 5.58451C17.3924 4.31512 16.7216 3.15789 15.7917 2.22735C14.8618 1.2968 13.7051 0.625206 12.4359 0.279013C12.3029 0.243245 12.1657 0.22509 12.0279 0.225013C11.8297 0.22313 11.6332 0.260539 11.4495 0.335077C11.2659 0.409616 11.0988 0.519807 10.958 0.659283C10.8172 0.798758 10.7055 0.964754 10.6292 1.14768C10.5529 1.3306 10.5137 1.52683 10.5137 1.72501V5.25001C10.5137 5.84675 10.7507 6.41905 11.1727 6.841C11.5946 7.26296 12.1669 7.50001 12.7637 7.50001H16.3029C16.5344 7.49779 16.7623 7.44222 16.9688 7.33762C17.1754 7.23303 17.355 7.08222 17.4938 6.89693C17.6326 6.71163 17.7268 6.49683 17.7691 6.26922C17.8114 6.0416 17.8006 5.8073 17.7377 5.58451ZM15.8642 6.00001H12.7607C12.5618 6.00001 12.371 5.921 12.2303 5.78034C12.0897 5.63969 12.0107 5.44893 12.0107 5.25001L12.0047 1.73026C12.0102 1.72629 12.0167 1.72395 12.0234 1.72351H12.0429C13.0645 2.00183 13.9952 2.5432 14.7422 3.2936C15.4892 4.04399 16.0263 4.97718 16.2999 6.00001H15.8642Z" fill="#8F97A0"/>
</g>
<defs>
<clipPath id="clip0_1194_11256">
<rect width="18" height="18" fill="white"/>
</clipPath>
</defs>
</svg>
