<svg width="18" height="18" viewBox="0 0 18 18" fill="none" xmlns="http://www.w3.org/2000/svg">
<path d="M8.99674 4C8.64575 4.00348 8.31018 4.15489 8.06273 4.42143L5.194 7.48571C5.06974 7.61954 5 7.80058 5 7.98929C5 8.17799 5.06974 8.35903 5.194 8.49286C5.25602 8.55981 5.32981 8.61294 5.41111 8.64921C5.4924 8.68547 5.5796 8.70414 5.66768 8.70414C5.75575 8.70414 5.84295 8.68547 5.92425 8.64921C6.00554 8.61294 6.07933 8.55981 6.14135 8.49286L8.32959 6.14286L8.32959 13.2857C8.32959 13.4752 8.39988 13.6568 8.525 13.7908C8.65011 13.9247 8.8198 14 8.99674 14C9.17368 14 9.34337 13.9247 9.46848 13.7908C9.5936 13.6568 9.66389 13.4752 9.66389 13.2857L9.66389 6.14286L11.8588 8.49286C11.9835 8.62736 12.1531 8.7033 12.3301 8.70397C12.5072 8.70464 12.6772 8.62998 12.8028 8.49643C12.9284 8.36287 12.9994 8.18136 13 7.99181C13.0006 7.80226 12.9309 7.62022 12.8062 7.48571L9.93742 4.42143C9.68834 4.15315 9.35005 4.00159 8.99674 4Z" fill="#00A832"/>
</svg>
