<svg width="38" height="36" viewBox="0 0 38 36" fill="none" xmlns="http://www.w3.org/2000/svg">
<rect x="0.5" y="0.5" width="37" height="35" rx="9.5" stroke="#E6F2FF"/>
<path d="M15.9331 17.9687H13.7012C15.6565 17.9687 17.2417 19.5538 17.2417 21.5092V28.4855H19.4736V21.5092C19.4737 19.5537 17.8885 17.9687 15.9331 17.9687Z" fill="#0078C8"/>
<path d="M11.9199 31.2464V35.837H26.6621V31.2464C26.6621 29.7216 25.426 28.4855 23.9011 28.4855H14.6809C13.1561 28.4855 11.9199 29.7215 11.9199 31.2464Z" fill="#0AB69F"/>
<path d="M23.9024 28.4855H21.4385C22.9633 28.4855 24.1994 29.7216 24.1994 31.2464V35.837H26.6634V31.2464C26.6633 29.7216 25.4272 28.4855 23.9024 28.4855Z" fill="#01998D"/>
<path d="M19.2915 31.0933C17.8522 31.0933 16.6855 29.9267 16.6855 28.4874V22.2162H21.8974V28.4874C21.8974 29.9266 20.7307 31.0933 19.2915 31.0933Z" fill="#FFB09E"/>
<path d="M16.6855 28.4874C16.6855 28.5119 16.6867 28.5362 16.6874 28.5605C17.5133 28.9462 18.4138 29.1456 19.3253 29.1447C20.2114 29.1454 21.0874 28.9568 21.8947 28.5914C21.8961 28.5569 21.8974 28.5223 21.8974 28.4874V22.2162H16.6855V28.4874Z" fill="#FFA78F"/>
<path d="M22.3522 11.1933H16.8135C14.1221 11.1933 11.9404 13.375 11.9404 16.0664V21.9561H19.2823V16.8466H22.3522V11.1933Z" fill="#AA6A51"/>
<path d="M25.5733 23.1611H22.3516V18.8942H25.5733C26.7515 18.8942 27.7067 19.8494 27.7067 21.0277C27.7067 22.2059 26.7515 23.1611 25.5733 23.1611Z" fill="#FFA78F"/>
<path d="M16.2116 23.1611H12.9899C11.8116 23.1611 10.8564 22.2059 10.8564 21.0277C10.8564 19.8494 11.8116 18.8942 12.9899 18.8942H16.2116V23.1611Z" fill="#FFB09E"/>
<path d="M19.3251 28.4056C15.8755 28.4056 13.0791 25.6092 13.0791 22.1597V19.8957C13.0791 16.4461 15.8755 13.6498 19.325 13.6498C22.7746 13.6498 25.571 16.4462 25.571 19.8957V22.1597C25.571 25.6092 22.7747 28.4056 19.3251 28.4056Z" fill="#FFCEBF"/>
<path d="M15.7956 23.4655H14.8702C14.7599 23.4655 14.654 23.5093 14.576 23.5874C14.4979 23.6654 14.4541 23.7713 14.4541 23.8816C14.4541 23.992 14.4979 24.0978 14.576 24.1759C14.654 24.2539 14.7599 24.2978 14.8702 24.2978H15.7956C15.9059 24.2978 16.0118 24.2539 16.0898 24.1759C16.1678 24.0978 16.2117 23.992 16.2117 23.8816C16.2117 23.7713 16.1678 23.6654 16.0898 23.5874C16.0118 23.5093 15.9059 23.4655 15.7956 23.4655Z" fill="#FE8F83"/>
<path d="M19.2826 26.2944C18.1865 26.2944 17.2949 25.4028 17.2949 24.3068C17.2949 24.1339 17.3636 23.9681 17.4859 23.8458C17.6081 23.7236 17.7739 23.6549 17.9468 23.6549C18.1197 23.6549 18.2856 23.7236 18.4078 23.8458C18.5301 23.9681 18.5988 24.1339 18.5988 24.3068C18.5988 24.6839 18.9056 24.9906 19.2826 24.9906C19.6596 24.9906 19.9664 24.6839 19.9664 24.3068C19.9664 24.1339 20.035 23.9681 20.1573 23.8458C20.2796 23.7236 20.4454 23.6549 20.6183 23.6549C20.7912 23.6549 20.957 23.7236 21.0793 23.8458C21.2015 23.9681 21.2702 24.1339 21.2702 24.3068C21.2703 25.4028 20.3786 26.2944 19.2826 26.2944Z" fill="#FFA799"/>
<path d="M16.2115 22.7925C16.0386 22.7925 15.8728 22.7238 15.7505 22.6015C15.6283 22.4793 15.5596 22.3134 15.5596 22.1405V21.3831C15.5596 21.2975 15.5764 21.2127 15.6092 21.1336C15.642 21.0545 15.69 20.9826 15.7505 20.9221C15.8111 20.8615 15.8829 20.8135 15.962 20.7808C16.0411 20.748 16.1259 20.7311 16.2115 20.7311C16.2971 20.7311 16.3819 20.748 16.461 20.7808C16.5401 20.8135 16.6119 20.8615 16.6725 20.9221C16.733 20.9826 16.781 21.0545 16.8138 21.1336C16.8466 21.2127 16.8634 21.2975 16.8634 21.3831V22.1405C16.8634 22.3134 16.7947 22.4793 16.6725 22.6015C16.5502 22.7238 16.3844 22.7925 16.2115 22.7925ZM22.3514 22.7925C22.1785 22.7925 22.0127 22.7238 21.8904 22.6015C21.7681 22.4793 21.6995 22.3134 21.6995 22.1405V21.3831C21.6995 21.2102 21.7681 21.0443 21.8904 20.9221C22.0127 20.7998 22.1785 20.7311 22.3514 20.7311C22.5243 20.7311 22.6901 20.7998 22.8124 20.9221C22.9346 21.0443 23.0033 21.2102 23.0033 21.3831V22.1405C23.0033 22.3134 22.9346 22.4793 22.8124 22.6015C22.6901 22.7238 22.5243 22.7925 22.3514 22.7925Z" fill="#5A5A5A"/>
<path d="M19.3252 13.6498C19.0749 13.6498 18.8286 13.6662 18.5859 13.6948C21.6868 14.0607 24.0927 16.6964 24.0927 19.8957V22.1597C24.0927 25.359 21.6868 27.9948 18.5859 28.3606C18.8285 28.3893 19.0749 28.4056 19.3251 28.4056C22.7747 28.4056 25.571 25.6093 25.571 22.1597V19.8957C25.5711 16.4461 22.7747 13.6498 19.3252 13.6498Z" fill="#FFB09E"/>
<path d="M20.6657 10.0004H19.5794C16.827 10.0004 14.5269 11.9357 13.9645 14.5196L13.9642 14.5193C13.7782 15.5517 13.8039 16.0797 13.8039 16.8466C13.8039 16.8466 15.8507 19.9406 17.6817 19.4014C17.4846 19.0655 17.2383 18.7019 17.1612 18.0727C17.9749 18.92 19.075 19.7342 20.2047 19.4014C20.0077 19.0656 19.7614 18.7019 19.6842 18.0727C20.4475 18.8674 21.5394 19.7031 22.5638 19.4014C22.5512 19.3799 22.3931 19.1107 22.3808 19.0892C21.8062 18.0921 22.5368 16.8466 23.6876 16.8466C24.3953 16.8466 25.032 17.2941 25.254 17.9661C25.3541 18.2692 25.4308 18.5795 25.4834 18.8943C25.5123 18.8932 25.5412 18.8921 25.5704 18.8921C25.9611 18.8921 26.327 18.9976 26.642 19.1808V15.9769C26.6421 12.6761 23.9664 10.0004 20.6657 10.0004Z" fill="#AA6A51"/>
<path d="M20.6665 10.0004C19.465 10.0004 19.4662 9.99621 19.1885 10.0149C22.2958 10.2277 24.7506 12.8154 24.7506 15.9768V17.2288C24.9847 17.4222 25.1595 17.6777 25.2549 17.966C25.355 18.2691 25.4317 18.5794 25.4843 18.8942C25.5132 18.8931 25.542 18.892 25.5712 18.892C25.9619 18.892 26.3278 18.9975 26.6429 19.1807V15.9768C26.6429 12.6761 23.9672 10.0004 20.6665 10.0004Z" fill="#935B44"/>
<path d="M23.693 23.4655H22.7677C22.6573 23.4655 22.5515 23.5093 22.4734 23.5874C22.3954 23.6654 22.3516 23.7713 22.3516 23.8816C22.3516 23.992 22.3954 24.0978 22.4734 24.1759C22.5515 24.2539 22.6573 24.2978 22.7677 24.2978H23.693C23.8034 24.2978 23.9092 24.2539 23.9873 24.1759C24.0653 24.0978 24.1091 23.992 24.1091 23.8816C24.1091 23.7713 24.0653 23.6654 23.9873 23.5874C23.9092 23.5093 23.8034 23.4655 23.693 23.4655Z" fill="#FE8F83"/>
</svg>
